<?xml version="1.0" encoding="UTF-8" standalone="no"?>
<svg
   version="1.0"
   width="1024.000000pt"
   height="1024.000000pt"
   viewBox="0 0 1024.000000 1024.000000"
   preserveAspectRatio="xMidYMid meet"
   id="svg7"
   sodipodi:docname="logo_light.svg"
   inkscape:version="1.3 (0e150ed6c4, 2023-07-21)"
   xmlns:inkscape="http://www.inkscape.org/namespaces/inkscape"
   xmlns:sodipodi="http://sodipodi.sourceforge.net/DTD/sodipodi-0.dtd"
   xmlns="http://www.w3.org/2000/svg"
   xmlns:svg="http://www.w3.org/2000/svg">
  <defs
     id="defs7" />
  <sodipodi:namedview
     id="namedview7"
     pagecolor="#505050"
     bordercolor="#eeeeee"
     borderopacity="1"
     inkscape:showpageshadow="true"
     inkscape:pageopacity="0"
     inkscape:pagecheckerboard="true"
     inkscape:deskcolor="#505050"
     inkscape:document-units="pt"
     showguides="true"
     inkscape:zoom="0.5"
     inkscape:cx="657"
     inkscape:cy="659"
     inkscape:window-width="1920"
     inkscape:window-height="1009"
     inkscape:window-x="2552"
     inkscape:window-y="-8"
     inkscape:window-maximized="1"
     inkscape:current-layer="g7"
     labelstyle="default">
    <sodipodi:guide
       position="249.38745,413.75644"
       orientation="1,0"
       id="guide44"
       inkscape:locked="false" />
    <sodipodi:guide
       position="739.97538,446.50429"
       orientation="1,0"
       id="guide46"
       inkscape:locked="false" />
    <sodipodi:guide
       position="176.96432,749.42187"
       orientation="0,-1"
       id="guide47"
       inkscape:locked="false" />
    <sodipodi:guide
       position="158.07134,269.53997"
       orientation="0,-1"
       id="guide48"
       inkscape:locked="false" />
  </sodipodi:namedview>
  <g
     transform="translate(0.000000,1024.000000) scale(0.100000,-0.100000)"
     fill="#0B0B0B"
     stroke="none"
     id="g7">
    <path
       d="m 7195.4929,10189.576 c -230.4801,-39.474 -378.3347,-85.527 -750.1479,-234.6522 -513.1445,-206.1436 -700.1368,-243.4251 -950.1859,-190.7926 -139.1591,30.7024 -221.7838,70.1766 -317.4549,153.5114 -86.9735,78.9484 -121.7625,78.9484 -193.5147,6.579 -52.1847,-52.6324 -54.3597,-67.9836 -45.6619,-203.9509 19.5684,-271.9342 241.3521,-614.0452 513.1441,-789.4866 115.2403,-72.3696 404.4276,-177.6344 497.9235,-177.6344 60.8827,-2.1932 60.8827,-2.1932 -36.963,-87.7209 -136.9836,-120.616 -367.4633,-276.3204 -489.2271,-328.9528 -56.5322,-24.1232 -180.4704,-65.7906 -278.3158,-89.9138 -165.2496,-43.8605 -206.5617,-46.0535 -569.6767,-28.5093 -726.2296,32.8953 -950.1873,4.386 -1278.5117,-166.6694 l -169.5998,-85.5278 -117.414,76.7558 C 2407.5962,8430.7758 1609.6108,8305.7738 1205.1853,7759.7121 1074.7248,7586.4634 1018.193,7470.2334 913.82249,7171.9829 744.22508,6687.3257 535.48716,6472.4099 231.08061,6472.4099 c -106.54408,0 -147.855169,-8.772 -173.948542,-39.4742 -134.808539,-149.1254 115.240172,-399.1295 463.134482,-464.9201 319.63005,-61.4046 639.25705,17.5442 930.61965,225.8808 165.2499,118.4231 300.0585,313.6019 480.529,684.2219 139.1564,282.8994 193.5172,372.8133 287.0118,469.3061 139.1592,138.1602 328.3256,241.232 480.5287,258.7762 l 108.7185,13.1582 -78.2772,-109.651 c -165.2497,-232.46 -256.5705,-506.5873 -284.8377,-857.4703 l -15.2208,-182.0206 -276.1419,-179.8274 c -150.0294,-98.6861 -317.453,-206.1439 -371.8106,-239.0393 -54.3585,-30.7022 -152.2034,-114.0368 -217.4336,-186.4064 -65.2305,-70.1766 -302.2354,-317.9879 -526.1907,-550.4479 l -410.95087,-423.2527 -145.6815,43.8604 c -80.45091,24.1232 -152.20303,37.2814 -158.72794,28.5094 -21.74213,-21.9302 -217.43322,-535.0967 -208.73463,-543.8687 8.6959,-10.9652 624.036,116.2298 691.44067,140.353 56.5317,21.9302 752.32007,721.5034 987.14907,991.2446 91.323,107.458 193.5163,186.4067 402.2541,320.1809 417.4726,263.1622 534.8864,350.8831 560.9801,418.8667 10.8701,32.8952 32.6151,164.4762 47.8355,291.6714 54.3576,497.8152 250.0487,868.4355 571.8497,1076.7721 265.2692,173.2487 532.7147,228.0741 928.4447,192.9857 317.4542,-28.5092 643.6042,-26.3162 804.5048,2.1932 180.4704,32.8952 478.3549,135.967 604.4677,210.5296 134.8084,78.9488 439.2161,298.2507 602.2912,434.2179 182.6451,153.5112 508.796,364.0411 739.2763,480.2711 656.6514,328.9528 1365.4856,385.9712 1943.8605,153.5114 171.7724,-67.9836 408.7759,-214.916 437.0421,-269.7414 28.2671,-52.6324 28.2671,-1600.9037 0,-1675.4666 -28.2662,-76.7556 -95.6708,-109.6508 -150.0297,-74.5626 -50.0098,30.7024 -60.8822,59.2116 -141.3317,326.7599 -47.8354,164.4764 -71.7536,206.1438 -197.8641,350.8831 -167.4254,190.7926 -195.6916,267.5482 -189.1691,528.5175 4.3489,179.8276 0,195.1786 -45.661,225.881 -45.6599,28.5092 -65.2302,28.5092 -169.5979,2.193 -356.5916,-96.4928 -554.4567,-219.3018 -789.2858,-493.4293 -237.0025,-276.3204 -317.454,-565.7989 -317.454,-1140.3698 0,-364.0412 2.1744,-375.0062 50.0098,-403.5154 26.0927,-15.3512 287.0135,-87.7208 580.5494,-157.8974 317.4531,-78.9486 543.5843,-144.7393 560.9801,-164.4765 15.2193,-17.5442 106.5421,-195.1786 202.213,-394.7432 97.8453,-199.5649 232.6556,-464.9201 300.0593,-592.1151 202.214,-372.8133 200.0395,-348.6901 76.1015,-495.6223 l -106.5422,-122.8093 217.4344,-206.1435 c 178.2948,-166.6694 219.6077,-197.3719 232.6536,-166.6694 21.7437,50.4394 126.1124,620.6242 126.1124,686.4148 0,46.0534 -515.3191,1129.4046 -702.3128,1475.9017 -69.5781,129.388 -78.276,135.9672 -215.2598,182.0206 -80.4496,28.5092 -280.4901,85.5276 -445.74,127.195 -165.249,43.8605 -352.2417,94.2999 -417.4719,111.844 l -117.4146,32.8952 15.2204,252.1972 c 26.0916,445.1829 147.8551,701.766 437.0421,921.068 84.7994,65.7904 160.902,118.423 167.4244,118.423 6.5224,0 17.3938,-46.0534 26.0927,-103.072 21.7417,-160.0902 108.7156,-324.5667 252.2219,-475.8851 123.9379,-129.388 130.4604,-144.7392 163.0765,-309.2156 32.6151,-175.4415 63.0567,-241.2321 160.901,-346.4969 100.0197,-109.6509 208.7364,-153.5113 363.115,-142.5461 173.9468,10.965 297.8848,92.1065 382.6843,247.8109 l 60.8812,109.651 v 778.5216 c 0,449.5689 -8.6979,811.4171 -21.7437,855.2776 -15.2203,52.6324 -13.0468,78.9486 2.1745,89.9136 15.2203,8.7722 117.4145,107.458 230.4796,219.302 l 204.388,206.1435 -345.7202,10.9653 -345.7193,10.965 -108.7176,133.7742 c -267.4442,322.3738 -589.2463,539.4827 -1024.1139,686.4149 -378.3363,127.195 -826.2498,164.477 -1200.2361,100.878 z"
       id="path1"
       style="stroke-width:2.18378" />
    <path
       d="m 6319.2342,6720.2212 c -73.9284,-85.5279 -54.3599,-210.5299 69.5791,-418.8667 l 104.3672,-177.6347 -110.8914,-28.5092 c -69.5788,-17.544 -241.3507,-28.5092 -469.6569,-28.5092 -313.1051,2.193 -391.3821,8.772 -613.1636,61.4046 -291.3628,70.1766 -541.4113,151.3183 -941.4894,307.0227 -417.4735,162.2832 -384.8586,164.4764 -619.6883,-61.4046 -282.664,-269.7413 -421.8204,-350.8831 -978.4526,-576.7639 -600.1168,-243.4253 -847.9919,-350.8831 -887.1317,-383.7785 -17.3945,-13.158 -173.9458,-188.5994 -347.8943,-388.1643 -171.7719,-199.5646 -378.3356,-429.8317 -454.4357,-510.9733 l -141.33349,-151.3183 -167.42354,-10.965 -169.59771,-13.1582 -47.83611,-210.5299 c -26.09307,-116.23 -54.35743,-232.46 -58.70837,-258.7762 -13.04355,-43.8604 0,-43.8604 291.3628,48.2464 167.42344,50.4394 319.62682,103.072 337.02122,111.844 17.3945,10.9652 139.1599,140.3532 269.6205,285.0925 128.2844,146.9321 343.5456,385.9711 474.0041,530.7106 l 239.1789,265.3552 293.5368,129.3881 c 160.8993,72.3696 434.867,186.4066 608.8148,256.5832 173.9467,67.9836 391.3801,164.4764 482.7037,212.7229 163.0758,85.5278 487.0507,339.9178 510.9701,403.5154 17.3949,46.0534 52.1838,39.4744 295.7098,-65.7906 356.5908,-153.5112 837.1198,-289.4784 1200.2347,-342.1108 223.9583,-30.7023 700.1385,-26.3163 884.958,8.772 86.9726,17.5442 239.1768,57.0186 334.8473,87.7208 163.0762,52.6324 182.6447,54.8254 252.2237,26.3162 91.3227,-39.4744 395.73,-72.3696 915.3981,-98.6858 215.2599,-10.9652 391.3812,-24.1232 395.7291,-28.5092 2.1745,-4.3863 69.5792,-87.7209 145.6817,-184.2137 l 143.5063,-177.6346 -84.8005,-107.4578 c -76.1006,-98.6859 -80.4495,-109.6511 -47.8344,-144.7393 47.8344,-52.6326 339.1968,-254.3902 406.6015,-280.7064 54.3578,-19.7372 56.5323,-17.5442 58.7068,61.4044 0,43.8604 4.3489,98.686 8.6979,120.6162 6.5224,39.4742 17.3947,405.7085 13.0458,478.0781 -2.1745,39.4742 -332.6744,482.4641 -413.1249,557.0267 -41.313,37.2814 -104.3687,46.0534 -495.7489,67.9836 -526.1905,32.8952 -906.6998,70.1766 -982.8029,100.8788 -104.3676,39.4745 -241.3509,173.2487 -358.7657,355.2691 -65.2295,100.879 -134.8092,188.5997 -154.3787,197.3719 -67.4041,24.1232 -156.5519,13.158 -191.3408,-24.1232 z"
       id="path2"
       style="stroke-width:2.18378" />
    <path
       d="m 3172.9632,5351.7773 c -134.8091,-54.8254 -237.0025,-221.4949 -254.3969,-416.6737 l -13.0467,-125.002 -143.5073,-8.772 c -360.941,-19.7372 -693.6146,-317.9879 -795.8081,-708.3451 -28.2672,-109.651 -32.6151,-355.2691 -32.6151,-1657.9223 0,-1462.74362 2.1741,-1535.11321 43.488,-1666.69441 54.3576,-179.82749 117.4139,-280.70629 258.7444,-425.44568 132.6345,-133.77399 308.757,-236.84609 491.4019,-285.092489 191.3429,-50.4393982 5233.637,-50.4393982 5444.5479,0 186.9937,46.053399 334.8488,129.388299 480.5305,274.127489 154.3766,153.5112 254.3964,328.95289 293.5359,519.74548 45.66,219.30181 45.66,2973.73351 0,3193.03551 -86.9749,414.4804 -426.1717,730.2753 -808.855,756.5915 l -158.7275,10.965 v 89.9138 c 0,135.9672 -39.1376,247.811 -115.2401,335.5319 -84.7985,98.6858 -178.2958,138.1602 -319.6276,138.1602 -141.3327,0 -237.0035,-41.6674 -313.1048,-133.7742 -76.1028,-89.9139 -97.8453,-149.1253 -117.4145,-304.8297 l -15.2206,-120.616 -1654.6732,-6.579 -1656.8478,-4.386 -15.2206,122.809 c -26.0906,214.9158 -113.0656,353.0761 -265.2696,416.6737 -80.4509,35.0882 -254.3963,37.2812 -332.6732,6.579 z m 247.8747,-396.9365 c 28.2672,-39.4744 34.789,-114.037 34.789,-346.4969 0,-324.5667 -21.7426,-394.7433 -117.4141,-394.7433 -97.8456,0 -110.8921,48.2464 -108.7176,388.1641 2.1761,269.7415 6.5242,320.1809 41.3133,357.4621 52.1837,57.0186 108.7174,54.8256 150.0294,-4.386 z m 4196.4767,0 c 52.1844,-74.5626 50.0099,-644.7474 -2.1745,-701.7658 -45.6609,-50.4396 -82.6249,-50.4396 -136.9828,4.386 -39.1385,39.4742 -43.4874,72.3696 -43.4874,355.2689 0,258.7763 6.5234,317.9877 36.964,350.8831 47.8354,52.6324 106.5432,50.4394 145.6807,-8.7722 z M 2914.2157,4290.3562 c 6.5245,-72.3696 28.2671,-160.0905 45.6616,-197.3717 74.0477,-280.7494 448.8781,-348.9814 680.3647,-177.2233 100.7378,109.1968 104.5734,175.0303 117.6181,352.6648 l 13.0459,153.5113 h 1663.3709 1663.3707 l 10.8714,-131.5811 c 13.046,-142.5463 58.5037,-203.454 128.286,-302.6367 84.7992,-92.1068 160.9018,-145.7185 295.7102,-145.7185 143.5072,0 237.0035,55.8049 323.9775,143.5255 78.275,81.1418 102.1942,140.3532 119.589,304.8297 13.0458,127.1949 15.2203,131.5811 78.276,138.1601 104.3677,13.158 217.4333,-32.8951 332.6744,-138.1601 143.5052,-129.3881 194.9515,-269.7413 199.2994,-491.2364 l -0.3705,-172.7115 -3123.417,-0.5369 -3155.5461,1.6561 0.4231,175.0061 c 0.6362,263.6973 41.56,398.6074 187.2411,527.9956 108.7186,96.4928 239.0836,100.1801 341.2794,95.7941 63.0542,-4.386 65.2301,-8.7722 78.2742,-135.9671 z M 8587.0706,2081.9861 V 913.10699 l -52.1843,-109.6508 C 8469.6561,663.103 8328.3233,516.1707 8200.0374,456.95911 l -102.1932,-48.2464 H 5456.0196 2814.196 l -123.936,61.4046 c -152.2029,74.56259 -258.7474,192.98569 -317.4529,346.49688 -41.3139,111.844 -43.4878,190.79261 -58.7086,1250.02071 -8.6967,622.8173 -6.5912,1160.2551 -6.4525,1181.1817 32.6576,0.4543 863.1432,0.8555 3150.5484,0.8555 h 3128.8762 z"
       id="path3"
       sodipodi:nodetypes="cccccscccccccccscscccccccccsscccccsscccccccccccsccccccccsccccccccccccccscc"
       style="stroke-width:2.18378" />
    <path
       d="m 7238.9788,2437.2552 v -307.0227 h 315.2801 315.2796 v 307.0227 307.0226 h -315.2796 -315.2801 z"
       id="path5"
       style="stroke-width:2.18378" />
    <path
       d="m 5842.8596,2435.7558 v -307.0227 h 315.2789 315.2797 v 307.0227 307.0227 h -315.2797 -315.2789 z"
       id="path5-7"
       style="stroke-width:2.18378" />
    <path
       d="M 5846.3856,1275.7376 V 968.71492 h 315.279 315.2794 v 307.02268 307.0226 h -315.2794 -315.279 z"
       id="path5-7-4"
       style="stroke-width:2.18378" />
    <path
       d="M 7236.9399,1273.5326 V 966.50986 h 315.28 315.2786 v 307.02274 307.0226 h -315.2786 -315.28 z"
       id="path5-7-8"
       style="stroke-width:2.18378" />
    <path
       d="m 2995.7926,2435.6226 v -307.0225 h 315.28 315.2802 v 307.0225 307.0226 h -315.2802 -315.28 z"
       id="path5-7-1"
       style="opacity:0.5;stroke-width:2.18378" />
    <path
       d="m 4349.9677,2438.019 v -307.0226 h 315.2791 315.2788 v 307.0226 307.0226 h -315.2788 -315.2791 z"
       id="path5-7-1-3"
       style="opacity:0.5;stroke-width:2.18378" />
    <path
       d="M 4347.8966,1274.0383 V 967.01558 h 315.2789 315.2791 v 307.02272 307.0227 h -315.2791 -315.2789 z"
       id="path5-7-1-8"
       style="opacity:0.5;stroke-width:2.18378" />
    <path
       d="M 2990.5643,1276.84 V 969.81759 h 315.2792 315.2797 V 1276.84 1583.8627 h -315.2797 -315.2792 z"
       id="path5-7-5"
       style="opacity:0.5;stroke-width:2.18378" />
    <path
       style="fill:#0b0b0b;fill-opacity:1;stroke-width:4.86214"
       d="M 3969.6444,28.047713 C 3470.201,31.770315 2892.1256,44.537249 2783.5255,54.243584 2652.7555,65.93135 2456.5999,158.18846 2315.5744,274.33239 c -78.1944,64.39876 -177.8861,174.66115 -228.0735,252.25925 -51.096,79.00248 -106.5472,216.05233 -124.4492,307.58737 -24.3182,124.33202 -28.1276,391.32359 -25.1951,1766.23969 2.3764,1113.6293 4.7048,1297.4149 17.9126,1413.5959 9.1495,80.4838 33.1909,158.6772 78.4489,255.131 l 24.6282,52.4913 h 210.6052 210.6084 l -28.755,-30.5182 C 2336.7906,4169.5845 2304.2808,4047.0636 2304.248,3736.9108 l -0.023,-113.527 h 3142.5812 3142.5803 l -2.4016,140.3828 c -3.0112,175.9035 -12.3536,235.1972 -51.7381,328.3744 -31.0782,73.527 -82.9179,144.3134 -146.5214,200.0724 l -33.665,29.5142 243.6704,-1.2664 243.6695,-1.2664 18.2095,-36.6217 c 48.9491,-98.4489 82.5234,-212.9315 90.4005,-308.2515 16.3688,-198.112 24.4462,-702.0909 24.4442,-1525.2729 0,-825.0552 -8.1272,-1331.5919 -24.5149,-1528.34431 C 8934.5728,724.21873 8830.7101,518.64241 8660.91,346.64392 8560.9699,245.41091 8489.9464,192.602 8379.1898,137.17626 8308.9741,102.03785 8211.4296,67.146783 8161.0841,59.161399 8082.3698,46.676161 7707.4799,36.694206 7048.7001,29.542153 6686.1129,25.605989 4443.2672,24.51686 3969.633,28.047315 Z M 8168.2979,439.01328 c 111.6292,53.59831 188.7657,112.79975 262.5982,201.54074 52.3437,62.91498 79.5949,106.3878 121.4975,193.82979 l 35.8504,74.81411 V 2080.7411 3252.2843 H 5445.4467 2302.6494 l 3.2607,-518.8068 c 6.3587,-1011.6613 19.9202,-1665.8697 37.3735,-1803.00681 18.4628,-145.07667 103.7197,-291.42256 224.3539,-385.10099 53.0767,-41.21786 55.982,-42.98384 155.3727,-94.4019 l 87.142,-45.08211 2644.2383,-0.16525 2644.2356,-0.16525 z"
       id="path25" />
    <path
       style="fill:#0b0b0b;fill-opacity:1;stroke-width:4.86214"
       d="m 3972.0647,28.036657 c -508.787,3.827092 -1078.1746,16.389427 -1188.5392,26.222367 -129.0175,11.49522 -318.653,99.624416 -459.924,213.740206 -82.6078,66.73001 -183.352,177.03713 -235.9132,258.30175 -51.4514,79.55302 -105.568,212.50743 -124.1895,305.1067 -23.1063,114.9278 -26.9735,337.74932 -27.0081,1556.60512 -0.033,1256.1278 4.9853,1567.4718 27.0856,1679.7138 10.3684,52.6386 37.404,130.3702 68.361,196.5363 l 26.8459,57.374 h 210.6065 210.6093 l -26.4104,-28.0767 c -116.5209,-123.8727 -148.8211,-244.3717 -149.2094,-556.6494 l -0.1449,-113.527 h 3142.0035 3142.0023 l -0.02,103.7611 c -0.03,167.5724 -11.3644,254.5916 -44.9069,344.6582 -29.7334,79.8395 -84.7098,157.5878 -157.4336,222.6467 l -30.4914,27.2774 243.5081,-1.2664 243.508,-1.2664 18.2076,-36.6217 c 48.717,-97.988 82.3232,-211.7822 90.289,-305.7248 16.4186,-193.625 24.5746,-700.9905 24.5577,-1527.7998 -0.02,-831.818 -7.8901,-1324.5706 -24.3814,-1525.90248 C 8935.4136,731.92829 8839.4808,535.12208 8678.019,362.9667 8579.0979,257.49502 8467.7396,175.6192 8351.0124,122.53966 8295.773,97.419761 8204.486,66.544147 8164.5436,59.470586 8093.6875,46.922395 7713.6478,36.714626 7051.1241,29.564664 6683.4492,25.596825 4444.1432,24.484785 3972.057,28.036657 Z M 8173.3949,441.96222 c 40.7592,20.02118 93.4037,50.2342 116.9862,67.1397 71.1181,50.97978 161.162,147.56053 208.4785,223.61199 7.5205,12.08511 30.7075,56.60054 51.5289,98.92347 l 37.8555,76.95043 V 2080.4359 3252.2843 H 5445.4604 2302.6769 l 3.241,-523.6898 c 1.7834,-288.0293 4.375,-586.3129 5.7632,-662.8523 1.3852,-76.5391 4.6274,-275.3946 7.2062,-441.9013 8.0928,-522.8756 15.4264,-675.68038 36.3118,-756.55861 26.9905,-104.50836 97.1031,-220.04995 177.7728,-292.95625 48.2372,-43.59663 96.6989,-75.06243 190.0383,-123.39001 l 87.142,-45.11996 2644.5676,-0.13049 2644.5667,-0.13059 z"
       id="path26" />
    <path
       style="fill:#0b0b0b;fill-opacity:1;stroke-width:9.72395"
       d="m 488.36515,3860.2037 c 2.1163,6.7141 26.43803,113.2831 54.04676,236.8202 27.60903,123.5371 52.97296,227.6522 56.36296,231.3668 3.393,3.7148 80.23834,12.1651 170.77131,18.7784 l 164.6029,12.0244 87.54022,94.0732 c 104.7347,112.551 347.4832,384.7374 570.6625,639.8665 89.2739,102.0525 194.0342,218.9025 232.8006,259.6667 69.8785,73.482 71.962,74.7665 243.3148,149.9547 95.0583,41.7107 312.2616,132.9553 482.6762,202.7658 808.4845,331.1977 881.4359,372.7648 1229.406,700.5165 58.4222,55.0284 123.551,108.9675 144.7299,119.8648 68.4515,35.2213 120.2994,23.4539 451.0352,-102.3662 471.1115,-179.2221 814.2183,-285.1262 1084.4506,-334.7278 115.2763,-21.1593 617.8537,-31.2326 785.8045,-15.7504 92.1213,8.4919 235.1436,35.1143 248.8035,46.3126 1.8768,1.5378 -33.8611,67.8996 -79.4176,147.4698 -96.2662,168.1433 -132.169,256.6667 -132.169,325.8767 0,107.0088 48.0835,155.6169 154,155.6792 59.7677,0.033 63.3494,-1.3782 98.8376,-39.0047 20.2528,-21.4726 75.1316,-94.7449 121.9531,-162.8276 138.9693,-202.0698 280.0339,-337.2741 380.3035,-364.506 97.8547,-26.5759 401.8504,-57.5717 857.0583,-87.3863 587.7291,-38.4949 574.4522,-35.6053 664.3945,-144.5985 76.7211,-92.9693 228.2499,-295.3075 292.8197,-391.0008 l 54.6168,-80.945 -0.6554,-187.6138 c -0.3606,-103.188 -5.8073,-253.4731 -12.1026,-333.9675 -9.948,-127.1782 -13.7052,-146.7918 -28.6745,-149.699 -48.701,-9.4577 -452.38,272.8432 -452.38,316.3579 0,7.4865 34.3762,59.233 76.3885,114.9919 l 76.3884,101.3801 -139.0089,174.6345 c -76.4561,96.049 -148.9558,179.7666 -161.1112,186.0388 -13.0388,6.728 -165.0328,19.7934 -370.6753,31.8633 -564.1192,33.1098 -778.373,55.2952 -912.7311,94.5103 -44.0153,12.8469 -92.1165,23.3576 -106.8907,23.3576 -14.7755,0 -85.5127,-17.8537 -157.1957,-39.6745 -350.9014,-106.8184 -462.5455,-121.017 -896.5486,-114.0199 -269.331,4.3421 -312.747,7.3825 -439.2681,30.7608 -385.8687,71.2998 -757.0058,184.4267 -1171.5948,357.1162 -123.352,51.38 -213.0166,72.2835 -213.0166,49.6602 0,-34.592 -208.5645,-216.2356 -387.304,-337.313 -137.6299,-93.2294 -251.2022,-146.7038 -721.3529,-339.6402 -149.1131,-61.1917 -389.4753,-163.103 -534.14,-226.4696 l -263.0268,-115.2125 -298.5644,-332.9109 c -474.363,-528.9318 -577.9654,-642.5865 -639.4729,-701.5096 -57.2104,-54.8038 -59.4552,-55.8683 -240.8832,-114.233 C 554.09828,3850.7714 479.51665,3832.1379 488.36585,3860.2037 Z"
       id="path29" />
    <path
       style="fill:#0b0b0b;fill-opacity:1;stroke-width:9.72395"
       d="M 4264.9646,30.98629 C 2977.6946,38.566364 2771.5894,45.257723 2662.495,83.013861 2371.1547,183.84106 2110.7933,421.86872 2013.4925,676.34108 c -51.6299,135.03535 -58.0298,175.0579 -67.5597,422.58952 -11.2096,291.1543 -11.6158,2252.3142 -0.5465,2636.7597 8.908,309.4552 16.048,357.5822 73.4341,494.9766 45.6682,109.3485 112.682,206.0904 212.1873,306.3187 175.0658,176.3427 328.3853,245.5703 582.9218,263.2073 l 98.1816,6.803 6.9349,83.9643 c 8.976,108.6719 26.4417,176.3448 67.3038,260.7675 39.7103,82.0423 108.7403,155.5251 174.7969,186.0766 95.9967,44.3969 266.1378,39.6597 368.2622,-10.2532 134.6884,-65.829 221.3828,-226.0016 241.8455,-446.8234 l 7.0129,-75.6849 h 1241.4883 c 682.8176,0 1431.7384,2.9131 1664.2686,6.4738 l 422.7824,6.4737 0.305,30.148 c 0.7062,69.9512 37.7776,243.4602 63.2264,295.9217 38.2336,78.8201 132.1717,170.3851 203.7633,198.6173 47.5656,18.7579 75.6205,22.5595 168.4236,22.8221 148.8752,0.421 201.7319,-19.6443 290.6532,-110.3377 96.0533,-97.9673 128.0219,-178.3472 140.4572,-353.1559 l 6.6489,-93.4697 127.2729,-11.0454 c 72.7716,-6.3154 156.2971,-20.0923 195.0511,-32.1719 291.7539,-90.94 531.2905,-342.3694 620.0444,-650.8305 41.4375,-144.0176 46.917,-336.6241 47.1581,-1658.1148 0.2351,-1281.6757 -6.2156,-1529.99735 -43.2504,-1664.78995 C 8856.25,535.6792 8636.0555,269.42902 8392.409,145.71039 8259.7094,78.327737 8184.579,58.133828 8047.2107,52.926748 7979.9874,50.378541 7903.2005,46.387692 7876.5739,44.058028 7849.9463,41.728563 7383.7286,37.492674 6840.5358,34.645042 6297.3416,31.79721 5748.3387,28.321041 5620.5286,26.919936 5492.7168,25.518731 4882.7135,27.349153 4264.9648,30.98629 Z m 3928.2815,420.52787 c 157.2244,82.92779 265.2547,195.99728 350.1209,366.45522 l 44.877,90.13821 V 2080.1961 3252.2843 H 5444.6477 2301.0503 l 6.5651,-788.5866 c 7.3387,-881.8149 20.353,-1433.3555 36.3016,-1538.61916 17.668,-116.58152 75.5251,-231.66262 162.2028,-322.61972 56.09,-58.85888 105.7416,-93.93363 218.2438,-154.1742 l 88.2111,-47.23227 2642.1434,-0.18567 2642.1439,-0.18767 z m 394.6603,3301.26624 c -0.4453,170.7005 -17.8082,265.0205 -67.3479,365.8553 -86.2896,175.6337 -277.3693,315.5898 -430.3036,315.174 -97.7466,-0.2646 -102.3018,-6.1971 -121.3102,-157.9443 -12.9263,-103.1791 -29.2533,-160.1486 -62.0985,-216.6766 -28.1138,-48.3839 -105.8898,-122.5678 -165.3506,-157.7142 -96.6759,-57.1416 -252.1521,-68.5604 -348.2812,-25.5779 -166.7032,74.5387 -284.6366,279.4323 -286.07,497.0104 l -0.3372,51.2704 H 5437.6733 3768.5416 l -5.6259,-51.2704 c -3.0941,-28.1987 -8.2246,-86.4271 -11.4016,-129.3965 -15.2214,-205.8721 -62.4287,-301.8286 -177.401,-360.5896 -165.7441,-84.7113 -371.1371,-68.0308 -499.8916,40.598 -79.7171,67.2568 -130.2136,188.1517 -156.0122,373.503 -8.1499,58.5556 -20.2703,108.7196 -28.2008,116.7197 -19.0865,19.2494 -115.5016,24.7935 -195.3577,11.2336 -178.403,-30.294 -318.9988,-169.9495 -366.9251,-364.4727 -9.551,-38.7706 -17.0928,-129.9101 -20.6173,-249.1277 l -5.5537,-187.9911 H 5444.8992 8588.244 Z m -5186.2339,476.6051 c 44.1713,35.0424 49.7786,77.8149 49.869,380.3418 0.049,153.0783 -3.1825,290.0711 -7.1755,304.4278 -3.9926,14.3569 -18.5401,39.6258 -32.3291,56.1532 -48.9174,58.6345 -140.7482,28.5996 -170.362,-55.7201 -9.424,-26.8326 -12.7488,-110.1768 -12.7488,-319.5097 0,-301.3225 5.0719,-341.8259 46.4662,-371.0693 30.4182,-21.4888 95.935,-18.6994 126.2802,5.3763 z m 4197.4504,4.5877 c 40.564,34.426 51.1584,91.6676 57.0922,308.4503 5.4735,199.9942 -7.4239,354.2074 -34.178,408.6663 -31.3989,63.9116 -115.6973,68.5561 -159.6161,8.794 -26.1783,-35.6218 -39.763,-232.5974 -31.8829,-462.2839 6.7455,-196.5832 15.2352,-227.8553 72.2666,-266.1678 42.1547,-28.3194 60.5256,-27.8347 96.3182,2.5411 z"
       id="path30" />
    <path
       style="fill:#0b0b0b;fill-opacity:1;stroke-width:9.72395"
       d="m 9492.8804,4227.028 c -40.9494,30.002 -124.5515,105.8229 -283.4205,257.0412 -67.9406,64.668 -97.7387,99.4084 -92.6736,108.0452 4.1069,7.0014 34.4748,43.4921 67.4854,81.0902 82.2674,93.7 110.8433,138.8503 110.5724,174.7056 -0.3278,43.2731 -31.2365,113.2846 -138.4451,313.5834 -51.7471,96.6812 -190.232,368.1458 -307.7432,603.255 -199.3881,398.9248 -215.8605,428.3997 -246.6537,441.3766 -54.6816,23.0439 -252.2229,77.8207 -599.5548,166.2536 -495.8117,126.2369 -532.9281,138.3478 -548.2082,178.8823 -27.787,73.7128 -17.0939,644.6058 15.9485,851.4783 49.6064,310.5787 156.2871,520.0291 382.251,750.4754 195.9515,199.8392 392.7757,310.7507 682.6429,384.6719 115.4473,29.4412 117.3847,29.5983 153.249,12.4337 57.4388,-27.4908 61.9272,-45.1837 66.9067,-263.7781 5.0183,-220.3264 12.992,-258.6039 73.3862,-352.2915 20.5175,-31.8293 75.8117,-103.9893 122.8751,-160.3558 47.0644,-56.3665 97.5774,-121.5791 112.2518,-144.9169 14.6755,-23.3381 57.6479,-138.557 95.4955,-256.0423 54.6138,-169.5307 74.6323,-219.4766 97.0056,-242.0423 36.2767,-36.5892 73.1671,-43.8778 116.014,-22.9218 61.0616,29.8645 69.6888,58.865 79.9495,268.7491 12.3466,252.5629 3.4774,1425.1489 -11.1423,1473.0603 -8.3323,27.3081 -26.514,47.3587 -76.0537,83.8726 -435.4315,320.9383 -1043.2768,422.3588 -1675.7943,279.6091 -460.5142,-103.931 -918.4884,-344.1841 -1424.1887,-747.1294 -164.6666,-131.2078 -408.0059,-306.093 -518.6343,-372.7378 -177.3478,-106.837 -474.4251,-210.556 -693.2118,-242.0215 -109.5021,-15.7483 -488.0665,-15.6455 -693.0172,0.1877 -239.582,18.5093 -482.1822,9.5329 -608.3862,-22.5107 -398.6446,-101.2167 -688.7328,-365.4866 -842.7701,-767.7663 -47.8343,-124.9227 -80.3766,-266.4119 -111.2639,-483.7542 -40.7607,-286.8162 -42.5004,-293.1443 -95.2544,-346.2143 -55.4348,-55.7658 -165.0699,-132.9375 -448.8621,-315.9506 -121.0274,-78.0476 -255.1561,-169.2978 -298.0668,-202.7785 -42.9112,-33.48 -150.8208,-140.4106 -239.8032,-237.6231 -189.3779,-206.8998 -694.2209,-718.6797 -821.35518,-832.6415 -87.30792,-78.2644 -89.00815,-79.218 -177.9915,-99.8822 -101.91652,-23.6673 -496.8412,-103.8646 -559.40405,-113.5976 l -41.25512,-6.4185 25.27289,71.678 c 44.29778,125.6432 170.14706,442.2869 181.2028,455.9182 13.69131,16.8785 50.1587,10.9962 194.70655,-31.4045 l 112.53986,-33.0116 326.62144,338.0525 c 179.64071,185.9293 387.00321,401.8152 460.80551,479.7466 269.2983,284.3652 234.9607,257.1522 720.5463,571.0284 155.9027,100.7728 287.1799,190.4198 291.7317,199.2152 4.5489,8.7953 11.3082,59.9377 15.0191,113.6492 20.4613,296.2378 78.9892,536.3809 179.8385,737.8778 16.0823,32.1311 62.3402,107.7724 102.7984,168.0917 40.4551,60.3192 75.3838,114.4004 77.6139,120.1801 4.5512,11.795 -93.156,2.7344 -175.8535,-16.3071 -118.7029,-27.3324 -282.9258,-123.9594 -395.6438,-232.7932 -98.4051,-95.013 -136.0592,-154.2774 -301.9862,-475.3014 -171.9906,-332.7577 -267.3585,-484.3053 -371.9218,-591.0268 -151.8622,-154.9937 -388.4748,-277.8358 -628.97774,-326.5451 -102.42921,-20.7455 -359.78647,-14.9948 -451.00625,10.0781 -266.19469,73.1658 -449.877765,219.7793 -450.1493,359.3038 -0.08367,39.2457 4.994314,52.127 32.386494,82.2764 l 32.480426,35.7461 117.81019,7.4246 c 191.27531,12.0549 295.9026,53.9549 404.68949,162.0668 118.38514,117.6517 204.96491,276.8106 317.6539,583.9379 108.70409,296.2623 193.85679,453.2282 332.83889,613.5298 183.1581,211.2516 434.1092,354.5843 724.3304,413.7071 120.4974,24.5466 401.2243,24.1705 516.4647,-0.6926 193.2974,-41.7035 367.1519,-114.712 538.2394,-226.0314 l 81.1307,-52.7872 163.6872,81.1934 c 336.4637,166.8948 473.8957,189.9828 1046.9537,175.8846 590.6765,-14.532 664.3367,-12.6993 789.1306,19.6333 144.4925,37.4361 276.4948,83.7071 359.6508,126.0689 177.8837,90.6186 522.4399,354.4109 503.4342,385.4284 -3.0928,5.0478 -30.802,11.5446 -61.575,14.438 -78.8293,7.4108 -259.6498,68.199 -385.1573,129.482 -132.6771,64.7837 -240.5082,150.9408 -341.0818,272.5244 -137.2141,165.882 -220.5791,332.7981 -249.3666,499.2982 -28.0845,162.425 -18.8112,208.6581 54.5523,271.994 62.5647,54.0121 79.4128,50.3491 192.0527,-41.7507 139.6084,-114.1532 377.0707,-175.1266 582.5407,-149.5793 162.6954,20.2291 301.6461,63.5081 685.9903,213.6659 320.366,125.1622 471.9941,174.5372 638.8622,208.0302 309.0882,62.041 588.3112,64.817 918.4217,9.132 398.4435,-67.215 811.9539,-249.9089 1100.1626,-486.0688 93.4486,-76.5726 228.1991,-214.3053 318.7431,-325.7968 60.1162,-74.0248 82.6528,-94.9883 106.5083,-99.0716 16.6427,-2.8484 160.9727,-8.205 320.7362,-11.9038 159.7621,-3.6985 298.3051,-9.6167 307.8721,-13.1518 13.961,-5.1588 -24.974,-48.6508 -197.3077,-220.4076 l -214.7,-213.9804 12.3336,-78.6099 c 8.923,-56.8639 13.5469,-292.6411 16.7174,-852.3213 l 4.3819,-773.7114 -36.2718,-66.1452 c -114.5548,-208.8975 -233.3688,-286.4037 -440.0932,-287.0883 -158.8231,-0.5264 -247.337,44.8618 -358.3895,183.774 -65.1674,81.5165 -87.3803,135.7457 -125.5686,306.5696 -15.2312,68.1311 -36.3474,140.8581 -46.925,161.6157 -10.5775,20.7576 -57.0592,79.4895 -103.2909,130.5159 -143.8509,158.7646 -229.0557,308.291 -257.0958,451.1796 -5.5871,28.4671 -14.773,72.7858 -20.4129,98.487 l -10.2568,46.729 -34.3901,-20.4646 c -72.7179,-43.2731 -213.6701,-157.8335 -284.1926,-230.9803 -205.2481,-212.8856 -280.9671,-442.0198 -304.5895,-921.7069 l -6.5204,-132.4133 76.248,-20.9334 c 41.9365,-11.5135 226.5715,-60.965 410.299,-109.8923 183.7265,-48.9275 394.3096,-108.8212 467.9608,-133.0972 116.1904,-38.2969 138.8435,-49.2646 171.1837,-82.8742 52.7083,-54.7785 436.1954,-824.8903 694.7804,-1395.2433 58.7346,-129.5477 72.7875,-169.5965 71.6908,-204.2971 -2.7831,-88.1206 -108.3371,-649.4227 -125.3514,-666.5827 -4.7145,-4.7562 -25.0069,3.7343 -46.42,19.4234 z"
       id="path31" />
    <path
       style="fill:#0b0b0b;fill-opacity:1;stroke-width:13.752"
       d="m 9418.781,4290.2947 c -127.1165,115.5846 -298.6089,285.4656 -298.6089,295.8025 0,4.9449 36.4331,52.8635 80.9625,106.4863 44.5293,53.6227 85.0405,110.4578 90.0259,126.3003 15.043,47.7996 -2.7512,94.9696 -117.4285,311.3067 -60.3981,113.9401 -193.4414,374.9658 -295.6526,580.0576 -263.0574,527.8405 -231.9364,483.0269 -365.0036,525.5946 -61.4898,19.6707 -281.254,79.0159 -488.3648,131.8782 -431.5945,110.1584 -538.3369,143.1193 -563.81,174.0951 -23.464,28.532 -23.4271,602.2298 0.05,785.6523 34.2786,267.8157 112.712,479.9413 240.4112,650.1966 100.6921,134.2505 319.013,334.8549 440.4278,404.6876 111.0207,63.8555 375.1588,160.7844 476.2195,174.7552 45.1051,6.2354 64.774,1.9679 91.5251,-19.8576 33.0394,-26.9568 34.3124,-34.4886 41.9455,-248.3935 9.4778,-265.5657 20.7805,-295.4762 191.3397,-506.3626 135.0294,-166.9577 145.7185,-187.4844 217.9094,-418.4834 65.3487,-209.1049 101.7032,-265.7677 170.5183,-265.7677 29.3409,0 54.9844,11.4466 75.8645,33.8638 27.2979,29.3066 33.0404,54.8619 42.6766,189.8997 13.532,189.6299 16.0959,1079.468 3.8768,1345.0421 l -8.8373,192.0834 -50.3486,48.3382 c -27.6904,26.5859 -99.5416,77.5632 -159.6668,113.283 -495.4242,294.3241 -1153.8252,337.7859 -1805.14,119.1586 -372.565,-125.059 -730.6315,-332.1963 -1173.5751,-678.8995 -236.8197,-185.3648 -491.5701,-361.5526 -608.975,-421.1732 -115.9588,-58.8861 -384.2104,-147.4712 -532.2298,-175.7593 -108.1089,-20.6608 -171.9942,-22.1616 -520.3436,-12.2247 -519.2032,14.8104 -674.9005,11.8752 -807.7437,-15.2267 -311.1545,-63.48 -593.856,-262.7351 -760.6844,-536.149 -124.686,-204.3496 -182.4241,-391.3185 -238.2532,-771.5343 -18.6712,-127.1458 -43.2357,-245.2851 -54.6595,-262.8708 C 2702.0957,6218.1838 2557.506,6112.7254 2253,5915.8336 L 1979.1364,5738.7529 1404.0188,5155.7462 C 883.13942,4627.7227 823.08881,4571.1947 767.28236,4556.3595 662.54998,4528.5188 187.13445,4432.7626 153.58502,4432.7511 c -38.45191,-0.023 -41.15899,-10.8517 67.46772,269.9302 110.67856,286.0786 92.85596,269.1433 240.50763,228.5508 66.47362,-18.2751 134.05539,-33.8124 150.18215,-34.527 21.368,-0.9474 170.6452,145.277 550.36648,539.1057 449.5967,466.304 538.0262,551.5238 644.8948,621.4902 68.1189,44.5966 237.2972,155.3051 375.9525,246.0184 l 252.1036,164.9336 9.4161,118.1896 c 14.3127,179.6391 56.2152,409.4388 97.1009,532.5167 47.2665,142.289 96.4991,240.2851 191.1269,380.451 41.9627,62.154 73,116.3294 68.9735,120.39 -4.0261,4.0609 -52.1008,0 -106.8338,-9.015 -220.9524,-36.4099 -469.3118,-205.391 -593.6738,-403.9322 -20.7634,-33.1496 -98.9682,-178.3552 -173.7852,-322.6788 -259.6749,-500.9088 -383.5302,-650.8094 -650.9584,-787.8368 -300.5625,-154.0045 -615.12094,-182.1616 -895.77962,-80.1832 -273.36797,99.3294 -424.720724,293.5103 -315.014545,404.1579 34.015705,34.3086 50.110085,38.916 161.320665,46.1827 336.65658,21.9983 498.81656,191.3014 704.30452,735.3298 97.30958,257.6189 156.16098,379.2497 243.78588,503.8241 179.7339,255.52 398.4266,411.7818 708.2401,506.053 111.5619,33.9467 144.645,37.6062 349.1773,38.6253 179.0285,0.8915 247.2614,-4.2957 328.6378,-24.9859 183.9638,-46.7721 357.1997,-126.3337 525.9967,-241.5701 l 39.8847,-27.229 149.277,75.5087 c 347.965,176.01 450.0252,191.7656 1167.6658,180.2606 587.0412,-9.4114 601.5951,-8.1399 859.7175,75.1067 185.1168,59.7021 461.6076,232.0175 632.8995,394.4374 l 68.4146,64.8714 -82.1589,15.8074 c -236.3057,45.4646 -460.9505,152.3849 -604.7505,287.8315 -241.2782,227.2625 -374.3183,487.0853 -374.3183,731.0297 0,87.0454 1.5773,91.0594 54.8133,139.5682 30.1457,27.4699 61.3614,49.9453 69.3667,49.9453 22.8038,0 69.4506,-27.8694 130.1017,-77.7321 128.9485,-106.0096 339.2444,-165.0086 539.9282,-151.4788 153.492,10.3485 311.2723,55.6268 661.9908,189.9726 159.3302,61.0323 341.2431,128.8613 404.2534,150.7313 707.9009,245.696 1544.8119,134.514 2178.6343,-289.4281 129.3936,-86.5472 342.3873,-285.8013 458.4282,-428.8559 74.973,-92.4277 77.6027,-94.1682 154.8867,-102.5347 43.2404,-4.6809 164.8863,-9.8611 270.3249,-11.5118 105.4385,-1.6507 222.4225,-6.3859 259.9665,-10.5231 l 68.261,-7.5223 -216.2029,-214.5149 -216.2021,-214.515 13.5469,-89.3246 c 7.4507,-49.1288 17.8619,-429.3647 23.1352,-844.9689 l 9.5884,-755.6437 -58.0951,-98.6285 c -112.6622,-191.2687 -229.6056,-264.1193 -425.0024,-264.7581 -138.8016,-0.454 -220.6955,35.8142 -321.4613,142.3641 -89.3955,94.5266 -118.9844,155.5136 -157.4695,324.5586 -39.5848,173.877 -46.1191,186.4904 -173.5813,335.0816 -152.6912,178.0011 -213.3702,296.1648 -251.1939,489.1596 -8.5604,43.6772 -20.7556,79.4127 -27.1007,79.4127 -22.8923,0 -241.5607,-172.1148 -316.5268,-249.1407 -191.2599,-196.512 -271.8499,-434.998 -297.3339,-879.8805 l -9.69,-169.1642 68.6119,-19.8681 c 37.737,-10.9276 222.6618,-61.2619 410.9444,-111.8541 445.2171,-119.6315 585.751,-165.5317 635.1393,-207.4468 55.1716,-46.8218 541.2375,-1020.7996 737.1024,-1477.002 l 47.437,-110.4872 -23.1413,-145.0144 c -24.2907,-152.2173 -84.918,-473.1395 -97.1898,-514.4557 -11.8715,-39.9675 -40.5391,-28.0915 -131.2155,54.3594 z"
       id="path32" />
    <path
       style="fill:#0b0b0b;fill-opacity:1;stroke-width:13.752"
       d="m 9364.2509,4341.3598 c -77.7591,71.2763 -165.7112,155.1497 -195.4486,186.3854 l -54.0689,56.7918 30.4177,38.0415 c 16.7304,20.9231 58.5066,75.145 92.8359,120.493 73.8315,97.5326 73.5117,112.942 -5.5891,269.7265 -388.1199,769.2792 -580.8242,1140.8679 -605.2474,1167.0887 -31.6639,33.9944 -186.2726,80.9219 -700.1015,212.4985 -362.6937,92.8747 -416.4987,109.4139 -452.9976,139.2467 -31.0891,25.4113 -31.2962,27.8525 -30.1348,354.7956 1.271,357.2357 17.9655,528.2843 68.9138,706.0841 66.2561,231.2215 169.2642,390.7296 386.9684,599.2223 161.6053,154.7666 290.4301,232.5365 505.1391,304.9479 205.534,69.317 260.4018,76.6255 304.5965,40.5718 32.7984,-26.7571 34.3612,-35.4579 41.7821,-232.7585 10.1313,-269.3682 22.6921,-304.6962 178.5389,-502.1364 148.8582,-188.5862 157.0481,-204.1503 232.4275,-441.7087 41.9953,-132.3457 69.9895,-197.4678 96.4777,-224.427 41.6476,-42.3873 87.1094,-48.3555 131.1815,-17.2209 63.6893,44.9929 65.7143,73.3189 65.7143,918.9919 0,913.3955 12.5468,830.7026 -141.2172,930.7169 -561.8656,365.4573 -1290.283,408.0635 -2026.8403,118.5526 -317.0935,-124.6367 -649.9341,-327.5667 -1043.0125,-635.9139 -244.2709,-191.6171 -502.0617,-365.6955 -633.2415,-427.6116 -131.5562,-62.0927 -394.1175,-144.9946 -527.0535,-166.414 -59.1808,-9.5351 -307.1985,-13.3721 -688.2385,-10.6473 l -595.7141,4.2601 -116.3923,-39.3802 c -283.1964,-95.8147 -500.9989,-263.8813 -654.5397,-505.069 -115.1693,-180.9147 -180.1151,-384.137 -229.8617,-719.2478 -36.7116,-247.3067 -40.7943,-267.4175 -63.9012,-314.7478 -22.1326,-45.3411 -169.0666,-154.0219 -482.644,-356.9907 L 1979.1364,5738.2361 1404.0188,5155.3675 C 881.75365,4626.0635 823.23713,4571.0177 767.28256,4556.3799 649.08827,4525.4619 191.14084,4432.7406 156.63018,4432.7406 c -29.72304,0 -33.41128,4.5157 -25.3727,31.0743 24.13017,79.7197 172.37392,449.67 189.79938,473.6519 19.34464,26.622 21.55786,26.4682 161.02982,-11.2078 l 141.41672,-38.2009 554.5748,564.0352 554.5781,564.0345 297.9365,190.4599 c 440.4876,281.587 402.412,246.3435 413.8768,383.0848 32.5907,388.6811 114.4167,651.9226 280.4376,902.1808 35.2722,53.172 69.0932,105.1375 75.1528,115.479 8.9937,15.3464 -2.5155,17.0786 -62.6209,9.4233 -168.8628,-21.5065 -332.9633,-100.4279 -484.0308,-232.7864 -100.3709,-87.9401 -153.0838,-169.1831 -328.7637,-506.7003 -234.2569,-450.0608 -364.6682,-617.6254 -578.886,-743.8097 -260.4324,-153.4064 -531.6691,-208.5818 -796.36736,-161.9984 -351.98656,61.945 -620.439504,310.9963 -483.787096,448.8228 33.38727,33.6763 51.213166,39.0703 154.049376,46.6177 63.95769,4.6944 146.64562,17.8751 183.74713,29.2907 210.94516,64.9049 370.04335,279.6661 532.97201,719.4437 89.05454,240.3675 125.46374,317.6615 210.52494,446.8981 188.7947,286.8511 427.3953,461.9208 756.9253,555.3841 101.2056,28.7049 145.8724,33.0245 342.3308,33.1088 193.0213,0.084 242.7602,-4.5151 341.3938,-31.558 152.0966,-41.7006 282.1046,-98.4665 417.9684,-182.5007 61.0356,-37.7513 118.6042,-68.6388 127.9309,-68.6388 9.3281,0 78.7042,31.2513 154.1707,69.4476 153.6945,77.7898 238.5706,111.6612 368.942,147.231 78.6714,21.4647 163.7324,24.42 732.5893,25.4533 457.3306,0.8305 663.3992,6.0582 712.0501,18.0629 210.4179,51.9201 405.3707,135.6015 561.4244,240.9853 110.2873,74.4775 318.425,243.4617 326.717,265.2575 4.5778,12.0297 -14.4438,20.3306 -60.7993,26.5326 -93.6271,12.5269 -330.2689,97.0818 -437.0839,156.1751 -117.5275,65.0203 -331.2273,281.1032 -409.3409,413.9093 -83.2478,141.5289 -127.7662,278.2621 -135.4901,416.1388 l -6.4417,114.9807 52.4762,54.2027 c 28.8617,29.8116 65.091,53.9766 80.508,53.7006 15.4164,-0.2764 68.0842,-31.384 117.0376,-69.1281 96.3704,-74.3047 189.2185,-115.4054 328.6379,-145.477 223.3684,-48.1794 429.5067,-2.6426 995.4531,219.8991 387.5577,152.3954 602.6399,207.8304 893.9682,230.4114 175.1641,13.577 447.7143,0.629 610.3076,-28.994 350.0921,-63.783 689.5758,-198.6867 964.666,-383.3382 112.8525,-75.7504 395.1823,-343.6085 495.1473,-469.7657 l 47.4898,-59.932 325.9278,-11.8771 c 179.2621,-6.5327 329.8351,-15.8793 334.6101,-20.7703 4.773,-4.8911 -88.844,-103.0897 -208.0385,-218.2198 l -216.7181,-209.3266 14.0778,-89.7708 c 7.7436,-49.3739 18.3829,-429.6583 23.6443,-845.0763 l 9.5665,-755.3057 -57.6669,-97.9025 c -101.1344,-171.6968 -186.901,-236.5198 -347.0849,-262.3289 -164.2339,-26.4621 -285.4237,15.8392 -402.2206,140.3969 -90.8029,96.8351 -108.3461,133.0988 -156.9057,324.3547 -22.2079,87.4691 -45.9767,169.5841 -52.8179,182.4776 -6.8421,12.8934 -62.471,82.1742 -123.6202,153.9575 -129.528,152.053 -209.5194,303.2793 -240.2957,454.293 -11.5228,56.5418 -23.6731,105.549 -27.0001,108.9051 -19.4397,19.6059 -305.3177,-216.387 -383.1156,-316.262 -158.7175,-203.7582 -214.9072,-414.8454 -243.2979,-913.9951 l -3.7313,-65.5965 68.5641,-19.5869 c 37.7101,-10.7725 222.613,-61.0949 410.8966,-111.8275 449.059,-120.9979 585.8596,-165.9047 636.6105,-208.9756 45.0025,-38.1922 471.6375,-884.288 676.8965,-1342.4105 l 107.3291,-239.5521 -23.7199,-147.1532 c -25.1345,-155.922 -85.7089,-475.9889 -97.7696,-516.5942 -3.9486,-13.2931 -15.5461,-24.1691 -25.773,-24.1691 -10.2269,0 -82.2156,58.3173 -159.9726,129.5936 z"
       id="path33" />
  </g>
</svg>
