<?xml version="1.0" encoding="UTF-8" standalone="no"?>
<svg
   version="1.0"
   width="1024.000000pt"
   height="1024.000000pt"
   viewBox="0 0 1024.000000 1024.000000"
   preserveAspectRatio="xMidYMid meet"
   id="svg7"
   sodipodi:docname="splash_dark.svg"
   inkscape:version="1.3 (0e150ed6c4, 2023-07-21)"
   inkscape:export-filename="splash_dark.png"
   inkscape:export-xdpi="81"
   inkscape:export-ydpi="81"
   xmlns:inkscape="http://www.inkscape.org/namespaces/inkscape"
   xmlns:sodipodi="http://sodipodi.sourceforge.net/DTD/sodipodi-0.dtd"
   xmlns="http://www.w3.org/2000/svg"
   xmlns:svg="http://www.w3.org/2000/svg">
  <defs
     id="defs7" />
  <sodipodi:namedview
     id="namedview7"
     pagecolor="#505050"
     bordercolor="#eeeeee"
     borderopacity="1"
     inkscape:showpageshadow="true"
     inkscape:pageopacity="0"
     inkscape:pagecheckerboard="true"
     inkscape:deskcolor="#505050"
     inkscape:document-units="pt"
     showguides="true"
     inkscape:zoom="0.5"
     inkscape:cx="656"
     inkscape:cy="639"
     inkscape:window-width="2560"
     inkscape:window-height="1009"
     inkscape:window-x="-8"
     inkscape:window-y="-8"
     inkscape:window-maximized="1"
     inkscape:current-layer="g7"
     labelstyle="default">
    <sodipodi:guide
       position="249.38745,413.75644"
       orientation="1,0"
       id="guide44"
       inkscape:locked="false" />
    <sodipodi:guide
       position="739.97538,446.50429"
       orientation="1,0"
       id="guide46"
       inkscape:locked="false" />
    <sodipodi:guide
       position="176.96432,749.42187"
       orientation="0,-1"
       id="guide47"
       inkscape:locked="false" />
    <sodipodi:guide
       position="158.07134,269.53997"
       orientation="0,-1"
       id="guide48"
       inkscape:locked="false" />
  </sodipodi:namedview>
  <g
     transform="translate(0.000000,1024.000000) scale(0.100000,-0.100000)"
     fill="#0B0B0B"
     stroke="none"
     id="g7">
    <path
       d="m 6461.9503,8399.6097 c -149.0792,-25.5365 -244.7144,-55.3291 -485.2106,-151.8012 -331.9121,-133.3584 -452.8625,-157.4766 -614.5992,-123.4276 -90.0108,19.862 -143.4542,45.3986 -205.3362,99.3096 -56.2561,51.0734 -78.7584,51.0734 -125.1691,4.2561 -33.7541,-34.049 -35.161,-43.9799 -29.535,-131.9399 12.6573,-175.9197 156.1114,-397.2382 331.9118,-510.7347 74.5398,-46.8174 261.5918,-114.9153 322.0669,-114.9153 39.38,-1.4188 39.38,-1.4188 -23.9085,-56.7484 -88.6037,-78.0289 -237.6826,-178.7572 -316.4418,-212.8061 -36.5661,-15.6058 -116.7318,-42.5613 -180.0202,-58.1671 -106.8867,-28.3743 -133.6082,-29.7929 -368.4782,-18.4432 -469.7397,21.2806 -614.6,2.8374 -826.9668,-107.8218 l -109.7005,-55.3297 -75.9457,49.6549 c -389.5738,251.1113 -905.7267,170.245 -1167.3171,-183.0132 -84.3844,-112.0781 -120.9503,-187.2697 -188.4592,-380.2139 -109.6991,-313.5345 -244.7148,-452.5678 -441.6111,-452.5678 -68.9148,0 -95.6356,-5.6748 -112.5133,-25.5366 -87.1968,-96.4722 74.5396,-258.2049 299.5646,-300.7662 206.743,-39.7238 413.4841,11.3497 601.9432,146.1268 106.887,76.6103 194.0839,202.8754 310.8158,442.6369 90.0091,183.0133 125.1708,241.1804 185.6449,303.6035 90.011,89.3786 212.3675,156.0579 310.8155,167.4075 l 70.3213,8.5124 -50.6312,-70.9354 c -106.8868,-150.3831 -165.955,-327.7215 -184.2387,-554.7148 l -9.8452,-117.7528 -178.614,-116.3339 c -97.042,-63.8421 -205.335,-133.3587 -240.4945,-154.6394 -35.1602,-19.8618 -98.4482,-73.7726 -140.6404,-120.59 -42.1923,-45.3986 -195.4918,-205.7127 -340.3506,-356.0958 l -265.8112,-273.8106 -94.2297,28.3742 c -52.0371,15.6057 -98.4479,24.118 -102.6684,18.4433 -14.0632,-14.1871 -140.6401,-346.1648 -135.0137,-351.8396 5.6247,-7.0936 403.6389,75.1914 447.2376,90.7971 36.5658,14.1872 486.6156,466.7551 638.5077,641.256 59.0695,69.5168 125.1702,120.5903 260.1859,207.1315 270.0296,170.2449 345.9752,226.9933 362.8531,270.9733 7.031,21.2806 21.0961,106.4029 30.9409,188.688 35.1597,322.0467 161.7365,561.8084 369.8838,696.5855 171.5814,112.0781 344.5705,147.5457 600.5365,124.8463 205.3357,-18.4432 416.2961,-17.0245 520.3697,1.4188 116.7318,21.2806 309.4095,87.9598 390.9818,136.1958 87.1967,51.0737 284.0936,192.9444 389.5739,280.9043 118.1384,99.3095 329.0994,235.5055 478.1786,310.697 424.7352,212.8062 883.2236,249.6925 1257.3274,99.3097 111.1062,-43.98 264.4045,-139.0335 282.6881,-174.5012 18.2836,-34.049 18.2836,-1035.6566 0,-1083.8929 -18.2836,-49.6548 -61.8819,-70.9353 -97.0424,-48.236 -32.3475,19.862 -39.3797,38.3051 -91.4163,211.3875 -30.9407,106.403 -46.4113,133.3586 -127.9824,226.9933 -108.2938,123.4276 -126.5774,173.0823 -122.3582,341.9085 2.813,116.3341 0,126.265 -29.5345,146.127 -29.5338,18.4432 -42.1921,18.4432 -109.6994,1.4187 -230.6505,-62.4231 -358.6336,-141.8707 -510.5258,-319.2093 -153.2978,-178.7572 -205.3355,-366.0267 -205.3355,-737.7281 0,-235.5056 1.4065,-242.599 32.3473,-261.0422 16.8773,-9.931 185.6461,-56.7483 375.5109,-102.147 205.3354,-51.0734 351.6013,-93.6347 362.8535,-106.4032 9.8439,-11.3496 68.9134,-126.2649 130.7953,-255.3672 63.2881,-129.1026 150.4859,-300.7661 194.0842,-383.0512 130.796,-241.1803 129.3891,-225.5746 49.2236,-320.628 l -68.9135,-79.4477 140.6413,-133.3584 c 115.3241,-107.8218 142.0462,-127.6839 150.4846,-107.8218 14.0644,32.6303 81.5724,401.4943 81.5724,444.0555 0,29.7929 -333.3192,730.6345 -454.2701,954.7904 -45.0043,83.7037 -50.6304,87.9599 -139.2343,117.7528 -52.0367,18.4431 -181.4266,55.3295 -288.3136,82.285 -106.8864,28.3742 -227.837,61.0045 -270.0291,72.3541 l -75.9461,21.2805 9.8448,163.1515 c 16.8765,287.9977 95.6356,453.9865 282.6875,595.8573 54.8498,42.5611 104.0747,76.6103 108.2933,76.6103 4.2192,0 11.2507,-29.7929 16.8774,-66.6794 14.0632,-103.5656 70.3197,-209.9687 163.1422,-307.8596 80.1656,-83.7037 84.3841,-93.6347 105.4808,-200.0378 21.0967,-113.4966 40.7866,-156.0579 104.074,-224.1558 64.6949,-70.9353 135.0152,-99.3095 234.87,-92.2159 112.5124,7.0935 192.6779,59.5855 247.5283,160.3138 l 39.379,70.9355 v 503.6412 c 0,290.8351 -5.626,524.922 -14.0644,553.2962 -9.8446,34.049 -8.4391,51.0734 1.4068,58.1669 9.8446,5.675 75.9457,69.5168 149.0784,141.8709 l 132.2023,133.3584 -223.6186,7.0936 -223.618,7.0935 -70.3209,86.5412 c -172.9881,208.5501 -381.1361,349.0022 -662.4173,444.0556 -244.7153,82.285 -534.4347,106.4034 -776.3364,65.26 z"
       id="path1"
       style="fill:#f9f6ee;fill-opacity:1;stroke:#f9f6ee;stroke-width:1.41262;stroke-opacity:1" />
    <path
       d="m 5895.1687,6155.2145 c -47.8184,-55.3297 -35.1611,-136.196 45.0051,-270.9733 l 67.5068,-114.9154 -71.7268,-18.4432 c -45.0049,-11.3496 -156.1104,-18.4431 -303.7834,-18.4431 -202.5226,1.4187 -253.1537,5.6748 -396.6064,39.7238 -188.4593,45.3987 -350.1956,97.8909 -608.974,198.6191 -270.0303,104.9843 -248.9342,106.4032 -400.8268,-39.7238 -182.8327,-174.5011 -272.8418,-226.9933 -632.8826,-373.1201 -388.1675,-157.4768 -548.498,-226.9934 -573.8144,-248.2741 -11.2512,-8.5121 -112.5116,-122.0087 -225.025,-251.1112 -111.1055,-129.1023 -244.7149,-278.0668 -293.938,-330.5589 l -91.4173,-97.8908 -108.2929,-7.0935 -109.6992,-8.5123 -30.9413,-136.196 c -16.8775,-75.1915 -35.1595,-150.3831 -37.9738,-167.4075 -8.4368,-28.3742 0,-28.3742 188.4593,31.2116 108.2928,32.6302 206.7409,66.6793 217.992,72.3541 11.2512,7.0936 90.0114,90.7973 174.3959,184.432 82.9769,95.0533 222.2121,249.6924 306.5952,343.3273 l 154.7057,171.6636 189.8655,83.7038 c 104.0729,46.8173 281.2806,120.5902 393.7935,165.9888 112.5122,43.98 253.1525,106.4031 312.2224,137.6147 105.4807,55.3297 315.0341,219.8996 330.5056,261.0422 11.2514,29.7929 33.7535,25.5368 191.271,-42.5612 230.65,-99.3095 541.4657,-187.2694 776.3357,-221.3184 144.8607,-19.8619 452.8635,-17.0245 572.4084,5.6748 56.2556,11.3497 154.7043,36.8865 216.5859,56.7483 105.4809,34.049 118.1382,35.4677 163.1433,17.0245 59.0694,-25.5367 255.966,-46.8173 592.0977,-63.8418 139.2344,-7.0936 253.1529,-15.6058 255.9653,-18.4432 1.4068,-2.8376 45.0057,-56.7484 94.23,-119.1715 l 92.8225,-114.9154 -54.8503,-69.5166 c -49.2236,-63.8418 -52.0366,-70.9355 -30.9406,-93.6348 30.9406,-34.049 219.3994,-164.57 262.9982,-181.5946 35.1599,-12.7683 36.5661,-11.3496 37.9729,39.7238 0,28.3742 2.813,63.842 5.6261,78.029 4.2185,25.5367 11.2507,262.461 8.4377,309.2784 -1.4062,25.5366 -215.1802,312.1156 -267.2168,360.3517 -26.7221,24.1181 -67.5079,29.7929 -320.6605,43.9799 -340.3506,21.2806 -586.4716,45.3987 -635.6965,65.2605 -67.5071,25.5369 -156.1106,112.0781 -232.0568,229.8307 -42.1918,65.2607 -87.1974,122.009 -99.8553,127.6839 -43.5983,15.6058 -101.2609,8.5122 -123.763,-15.6058 z"
       id="path2"
       style="fill:#f9f6ee;fill-opacity:1;stroke:#f9f6ee;stroke-width:1.41262;stroke-opacity:1" />
    <path
       d="m 3860.098,5269.9407 c -87.1972,-35.4676 -153.2979,-143.2894 -164.549,-269.5545 l -8.4388,-80.8664 -92.8234,-5.6747 c -233.4638,-12.7684 -448.6437,-205.7128 -514.7446,-458.2427 -18.2837,-70.9354 -21.096,-229.8307 -21.096,-1072.5431 0,-946.2782 1.4062,-993.0955 28.1288,-1078.218 35.1597,-116.3341 75.9457,-181.5946 167.3612,-275.2294 85.7906,-86.541 199.7101,-153.2204 317.8485,-184.432 123.7643,-32.6303 3385.2205,-32.6303 3521.6419,0 120.951,29.7929 216.5866,83.7039 310.8166,177.3385 99.8541,99.3095 164.549,212.8063 189.8649,336.2338 29.5338,141.8707 29.5338,1923.7678 0,2065.6387 -56.2572,268.1356 -275.6565,472.4297 -523.1835,489.4542 l -102.6681,7.0934 v 58.1671 c 0,87.9599 -25.315,160.3139 -74.5396,217.0623 -54.8493,63.8418 -115.3253,89.3786 -206.7415,89.3786 -91.4168,0 -153.2986,-26.9555 -202.5224,-86.5412 -49.2248,-58.1671 -63.2883,-96.4722 -75.9461,-197.2004 l -9.8449,-78.029 -1070.2755,-4.2561 -1071.6822,-2.8374 -9.845,79.4477 c -16.8759,139.0333 -73.1331,228.412 -171.5816,269.5545 -52.0373,22.6993 -164.5486,24.118 -215.1797,4.2561 z m 160.3303,-256.7862 c 18.2837,-25.5367 22.5022,-73.7728 22.5022,-224.1557 0,-209.9688 -14.0636,-255.3674 -75.9457,-255.3674 -63.2885,0 -71.7272,31.2116 -70.3207,251.1111 1.4075,174.5012 4.2199,207.1315 26.7222,231.2494 33.7534,36.8865 70.3206,35.4678 97.042,-2.8374 z m 2714.3646,0 c 33.7539,-48.236 32.3474,-417.1 -1.4065,-453.9864 -29.5344,-32.6303 -53.4434,-32.6303 -88.6032,2.8375 -25.3155,25.5366 -28.1285,46.8173 -28.1285,229.8305 0,167.4076 4.2195,205.7127 23.909,226.9934 30.941,34.0489 68.9143,32.6302 94.2292,-5.675 z M 3692.735,4583.2861 c 4.2201,-46.8173 18.2837,-103.5657 29.5348,-127.6837 47.8955,-181.6224 290.3433,-225.763 440.0734,-114.6493 65.1592,70.6416 67.6402,113.2306 76.0778,228.146 l 8.4383,99.3095 H 5322.7607 6398.662 l 7.0318,-85.1225 c 8.4384,-92.216 37.8414,-131.6184 82.9779,-195.7817 54.8499,-59.5858 104.0746,-94.2682 191.2713,-94.2682 92.8233,0 153.2986,36.1013 209.555,92.8495 50.6299,52.4922 66.1013,90.7973 77.3526,197.2004 8.4383,82.285 9.8448,85.1225 50.6305,89.3786 67.5071,8.5122 140.64,-21.2805 215.1802,-89.3786 92.8225,-83.7037 126.0988,-174.501 128.9112,-317.7906 l -0.24,-111.7306 -2020.2881,-0.3473 -2041.07,1.0714 0.2737,113.2149 c 0.4115,170.5911 26.8819,257.8672 121.1113,341.571 70.3214,62.4231 154.644,64.8085 220.7462,61.9711 40.7848,-2.8374 42.1922,-5.6749 50.6294,-87.9599 z M 7362.0504,3154.6473 v -756.1714 l -33.7536,-70.9353 c -42.1927,-90.7973 -133.6091,-185.8507 -216.587,-224.1559 l -66.1008,-31.2115 H 5336.8243 3628.0402 l -80.1642,39.7238 c -98.4479,48.2361 -167.363,124.8463 -205.3348,224.1558 -26.7228,72.3541 -28.1289,123.4276 -37.974,808.6635 -5.6252,402.913 -4.2633,750.5923 -4.1736,764.13 21.1236,0.294 558.2982,0.5535 2037.8374,0.5535 h 2023.8194 z"
       id="path3"
       sodipodi:nodetypes="cccccscccccccccscscccccccccsscccccsscccccccccccsccccccccsccccccccccccccscc"
       style="fill:#f9f6ee;fill-opacity:1;stroke:#f9f6ee;stroke-width:1.41262;stroke-opacity:1" />
    <path
       d="m 6490.0778,3384.478 v -198.6192 h 203.9295 203.929 v 198.6192 198.619 h -203.929 -203.9295 z"
       id="path5"
       style="fill:#f9f6ee;fill-opacity:1;stroke:#f9f6ee;stroke-width:1.41262;stroke-opacity:1" />
    <path
       d="m 5587.0401,3383.508 v -198.6192 h 203.9286 203.9293 v 198.6192 198.6191 h -203.9293 -203.9286 z"
       id="path5-7"
       style="fill:#f9f6ee;fill-opacity:1;stroke:#f9f6ee;stroke-width:1.41262;stroke-opacity:1" />
    <path
       d="m 5589.3208,2633.0689 v -198.6191 h 203.9287 203.9291 v 198.6191 198.6191 h -203.9291 -203.9287 z"
       id="path5-7-4"
       style="fill:#f9f6ee;fill-opacity:1;stroke:#f9f6ee;stroke-width:1.41262;stroke-opacity:1" />
    <path
       d="m 6488.759,2631.6425 v -198.6192 h 203.9294 203.9284 v 198.6192 198.6191 H 6692.6884 6488.759 Z"
       id="path5-7-8"
       style="fill:#f9f6ee;fill-opacity:1;stroke:#f9f6ee;stroke-width:1.41262;stroke-opacity:1" />
    <path
       d="m 3745.5005,3383.4218 v -198.619 h 203.9294 203.9295 v 198.619 198.6191 h -203.9295 -203.9294 z"
       id="path5-7-1"
       style="opacity:0.5;fill:#f9f6ee;fill-opacity:1;stroke:#f9f6ee;stroke-width:1.41262;stroke-opacity:1" />
    <path
       d="M 4621.4079,3384.9721 V 3186.353 h 203.9289 203.9285 v 198.6191 198.6191 h -203.9285 -203.9289 z"
       id="path5-7-1-3"
       style="opacity:0.5;fill:#f9f6ee;fill-opacity:1;stroke:#f9f6ee;stroke-width:1.41262;stroke-opacity:1" />
    <path
       d="m 4620.0683,2631.9696 v -198.6191 h 203.9287 203.9287 v 198.6191 198.6192 H 4823.997 4620.0683 Z"
       id="path5-7-1-8"
       style="opacity:0.5;fill:#f9f6ee;fill-opacity:1;stroke:#f9f6ee;stroke-width:1.41262;stroke-opacity:1" />
    <path
       d="m 3742.1188,2633.7821 v -198.6189 h 203.9288 203.9292 v 198.6189 198.6192 h -203.9292 -203.9288 z"
       id="path5-7-5"
       style="opacity:0.5;fill:#f9f6ee;fill-opacity:1;stroke:#f9f6ee;stroke-width:1.41262;stroke-opacity:1" />
    <path
       style="fill:#f9f6ee;fill-opacity:1;stroke:#f9f6ee;stroke-width:3.14517;stroke-opacity:1"
       d="m 4375.4073,1825.9133 c -323.05,2.4082 -696.9606,10.6675 -767.2053,16.9467 -84.5846,7.5611 -211.462,67.244 -302.6801,142.3798 -50.5777,41.6609 -115.0603,112.9919 -147.5225,163.1916 -33.0499,51.1083 -68.9169,139.7686 -80.4962,198.9844 -15.7296,80.4329 -18.1935,253.1551 -16.2967,1142.6159 1.5371,720.4291 3.0431,839.3237 11.5862,914.4835 5.9181,52.0666 21.4686,102.6515 50.7423,165.0494 l 15.9301,33.9576 h 136.2235 136.2258 l -18.5994,-19.7428 c -74.07,-78.6229 -95.098,-157.8841 -95.1192,-358.5282 l -0.015,-73.4429 h 2032.6841 2032.6836 l -1.5537,90.8165 c -1.9475,113.7955 -7.9902,152.1538 -33.4651,212.432 -20.1019,47.5661 -53.6331,93.3592 -94.7728,129.4308 l -21.7751,19.0933 157.6106,-0.8192 157.6106,-0.8193 11.7779,-23.6913 c 31.6612,-63.6885 53.3782,-137.7497 58.4732,-199.4141 10.5871,-128.1626 15.8121,-454.1966 15.8109,-986.7296 0,-533.7447 -5.2568,-861.4335 -15.8568,-988.7166 -10.5865,-127.1104 -77.7672,-260.1019 -187.5972,-371.3711 -64.6432,-65.4898 -110.5823,-99.6529 -182.2221,-135.5089 -45.4171,-22.7317 -108.5106,-45.3035 -141.075,-50.4694 -50.914,-8.0769 -293.4002,-14.5345 -719.5122,-19.1612 -234.5286,-2.5465 -1685.2458,-3.2511 -1991.6018,-0.9671 z m 2715.7726,265.8619 c 72.2037,34.6738 122.0975,72.9725 169.8534,130.3808 33.8572,40.7009 51.4837,68.8244 78.5874,125.3923 l 23.1885,48.3988 v 757.8948 757.8947 H 5329.9856 3297.1617 l 2.1091,-335.6265 c 4.1129,-654.464 12.8848,-1077.6845 24.174,-1166.4012 11.942,-93.853 67.0879,-188.5271 145.1165,-249.1296 34.3311,-26.6646 36.2103,-27.8071 100.4982,-61.0705 l 56.3651,-29.1645 1710.346,-0.1069 1710.3442,-0.1069 z"
       id="path25" />
    <path
       style="fill:#f9f6ee;fill-opacity:1;stroke:#f9f6ee;stroke-width:3.14517;stroke-opacity:1"
       d="m 4376.9727,1825.9062 c -329.0935,2.4758 -697.3847,10.6026 -768.7707,16.9638 -83.4511,7.4365 -206.1111,64.449 -297.488,138.2728 -53.4324,43.169 -118.5957,114.5289 -152.5934,167.1006 -33.2798,51.4644 -68.2834,137.4752 -80.3282,197.3796 -14.9457,74.3491 -17.4471,218.4968 -17.4694,1006.9991 -0.021,812.6142 3.2246,1014.0289 17.5195,1086.6405 6.7065,34.053 24.1937,84.3391 44.2172,127.1432 l 17.3646,37.1164 h 136.2244 136.2263 l -17.0828,-18.1634 c -75.368,-80.1357 -96.2604,-158.0889 -96.5116,-360.1076 l -0.094,-73.4429 h 2032.3103 2032.3094 l -0.013,67.1252 c -0.019,108.4059 -7.3506,164.7004 -29.0461,222.9662 -19.2326,51.6498 -54.7922,101.9468 -101.8315,144.0347 l -19.7221,17.6462 157.5058,-0.8192 157.5058,-0.8193 11.7766,-23.6913 c 31.5111,-63.3904 53.2482,-137.0061 58.4008,-197.7794 10.6201,-125.26 15.8955,-453.4849 15.8845,-988.3644 -0.013,-538.1197 -5.1034,-856.8912 -15.77,-987.1369 -10.1319,-123.7023 -72.1833,-251.0202 -176.62,-362.391 -63.9842,-68.2317 -136.0127,-121.1988 -211.514,-155.537 -35.7304,-16.2506 -94.7766,-36.2246 -120.612,-40.8007 -45.8311,-8.1176 -291.6484,-14.7212 -720.1819,-19.3467 -237.8194,-2.5668 -1686.2471,-3.2863 -1991.6018,-0.9885 z m 2717.5041,267.7768 c 26.3636,12.952 60.4153,32.4975 75.6686,43.434 46.0013,32.9798 104.2429,95.4599 134.8484,144.659 4.8641,7.8182 19.8619,36.616 33.33,63.9956 l 24.4854,49.7808 v 758.092 758.0922 H 5329.9944 3297.1795 l 2.0963,-338.7854 c 1.1536,-186.3319 2.8299,-379.2976 3.7278,-428.8124 0.896,-49.5147 2.9931,-178.1583 4.6611,-285.8748 5.2346,-338.2588 9.9782,-437.1112 23.4872,-489.433 17.458,-67.6085 62.8083,-142.3547 114.987,-189.5192 31.2008,-28.2036 62.5468,-48.5594 122.9206,-79.8235 l 56.3651,-29.1891 1710.559,-0.084 1710.5583,-0.085 z"
       id="path26" />
    <path
       style="fill:#f9f6ee;fill-opacity:1;stroke:#f9f6ee;stroke-width:6.29013;stroke-opacity:1"
       d="m 2123.6466,4305.0119 c 1.3689,4.3434 17.1006,73.2851 34.9585,153.2037 17.8581,79.9186 34.264,147.2728 36.4567,149.6758 2.1947,2.4032 51.8997,7.8698 110.4583,12.1481 l 106.4684,7.7789 56.6227,60.8578 c 67.7445,72.8115 224.7591,248.8943 369.1159,413.9425 57.7441,66.0198 125.5052,141.6124 150.58,167.9836 45.1989,47.5369 46.5465,48.3679 157.3809,97.0087 61.4857,26.9835 201.977,86.0114 312.2046,131.1732 522.9439,214.2584 570.1303,241.1491 795.2043,453.1782 37.7886,35.5989 79.9152,70.4933 93.6141,77.543 44.2758,22.7853 77.8121,15.1727 291.7385,-66.2228 304.7244,-115.9424 526.6526,-184.4539 701.4443,-216.5421 74.563,-13.6884 399.64,-20.205 508.274,-10.1893 59.5859,5.4936 152.0956,22.7161 160.931,29.9606 1.214,0.9948 -21.902,43.9256 -51.3689,95.4011 -62.2668,108.7753 -85.4895,166.0429 -85.4895,210.8162 0,69.2262 31.1014,100.6717 99.6102,100.712 38.659,0.021 40.9757,-0.8916 63.9302,-25.2329 13.0999,-13.8911 48.5966,-61.2924 78.8817,-105.3365 89.8881,-130.723 181.1315,-218.1893 245.9879,-235.8062 63.2943,-17.1925 259.9248,-37.2443 554.3623,-56.5319 380.1547,-24.9032 371.5675,-23.0338 429.7438,-93.5437 49.6246,-60.1437 147.6366,-191.0404 189.4018,-252.9463 l 35.3266,-52.3649 -0.4236,-121.3711 c -0.2335,-66.7544 -3.7561,-163.9768 -7.8285,-216.0503 -6.4345,-82.2742 -8.8646,-94.9626 -18.5469,-96.8433 -31.5008,-6.1184 -292.6084,176.5077 -292.6084,204.6583 0,4.8431 22.2351,38.319 49.4093,74.3905 l 49.41,65.5849 -89.9138,112.9745 c -49.4533,62.136 -96.3478,116.2946 -104.2099,120.3522 -8.4339,4.3525 -106.7467,12.8048 -239.7604,20.613 -364.8835,21.4194 -503.4672,35.7716 -590.3726,61.1407 -28.47,8.3108 -59.5828,15.1105 -69.139,15.1105 -9.5571,0 -55.3114,-11.55 -101.6773,-25.6663 -226.97,-69.103 -299.1837,-78.2883 -579.9056,-73.7618 -174.2086,2.809 -202.2909,4.7759 -284.1272,19.8998 -249.5876,46.1253 -489.6465,119.3094 -757.8109,231.0257 -79.7865,33.2387 -137.7833,46.7617 -137.7833,32.1262 0,-22.3783 -134.9037,-139.8872 -250.516,-218.2146 -89.0218,-60.312 -162.4826,-94.9056 -466.5854,-219.72 -96.4493,-39.5862 -251.9204,-105.5147 -345.4924,-146.5078 l -170.1309,-74.5333 -193.1174,-215.3667 c -306.8275,-342.1765 -373.8396,-415.7021 -413.6238,-453.8206 -37.0048,-35.4537 -38.4568,-36.1423 -155.8081,-73.8996 -232.7588,-74.8897 -280.9995,-86.9441 -275.2757,-68.7877 z"
       id="path29" />
    <path
       style="fill:#f9f6ee;fill-opacity:1;stroke:#f9f6ee;stroke-width:6.29013;stroke-opacity:1"
       d="m 4566.4262,1827.8144 c -832.6318,4.9037 -965.9448,9.2325 -1036.5092,33.6577 -188.4447,65.2271 -356.8516,219.212 -419.7878,383.8352 -33.3952,87.3571 -37.5348,113.2485 -43.6988,273.3817 -7.2506,188.3535 -7.5134,1457.0672 -0.3535,1705.7726 5.7618,200.1928 10.3801,231.3271 47.4986,320.2103 29.5391,70.7398 72.885,133.3241 137.2469,198.1638 113.2361,114.0796 212.4062,158.8643 377.0455,170.274 l 63.5058,4.401 4.4856,54.3182 c 5.8059,70.302 17.1031,114.081 43.5335,168.6957 25.6853,53.0748 70.3354,100.6123 113.0621,120.3767 62.0926,28.7212 172.1432,25.6566 238.1993,-6.633 87.1191,-42.5861 143.1948,-146.2049 156.4304,-289.059 l 4.5361,-48.9621 h 803.0194 c 441.66,0 926.0769,1.8845 1076.4821,4.1881 l 273.4639,4.1879 0.1974,19.5033 c 0.4568,45.2529 24.4352,157.4993 40.896,191.4378 24.7303,50.9903 85.4913,110.2255 131.7982,128.4895 30.7664,12.1348 48.9129,14.5941 108.9397,14.764 96.2955,0.2724 130.4843,-12.7083 188.0003,-71.3797 62.1292,-63.377 82.8071,-115.3763 90.8505,-228.4636 l 4.3007,-60.4674 82.3226,-7.1455 c 47.0702,-4.0856 101.0964,-12.9981 126.1633,-20.8126 188.7117,-58.831 343.6489,-221.4857 401.0567,-421.0354 26.8024,-93.1678 30.3469,-217.7688 30.5028,-1072.6676 0.152,-829.1417 -4.0207,-989.786 -27.975,-1076.986 -45.4785,-165.5497 -187.9044,-337.7922 -345.5001,-417.8283 -85.8324,-43.5912 -134.4284,-56.655 -223.2809,-60.0236 -43.4814,-1.6485 -93.1487,-4.2302 -110.3713,-5.7373 -17.2233,-1.507 -318.7822,-4.2473 -670.13,-6.0895 -351.3488,-1.8424 -706.4548,-4.0911 -789.125,-4.9975 -82.6712,-0.9065 -477.2335,0.2777 -876.8057,2.6306 z m 2540.8907,272.0479 c 101.6959,53.6476 171.5719,126.7946 226.465,237.0672 l 29.0273,58.3122 v 758.2476 758.2473 H 5329.4687 3296.1274 l 4.2464,-510.1525 c 4.7469,-570.4637 13.1648,-927.2664 23.4806,-995.3635 11.428,-75.419 48.8511,-149.8672 104.916,-208.7092 36.2801,-38.077 68.3958,-60.7675 141.1644,-99.7384 l 57.0567,-30.5555 1708.991,-0.1201 1708.9912,-0.1214 z m 255.2743,2135.6552 c -0.2885,110.4296 -11.5186,171.4472 -43.562,236.6792 -55.8141,113.621 -179.4078,204.1614 -278.3291,203.8924 -63.2244,-0.1712 -66.1708,-4.009 -78.4658,-102.1774 -8.361,-66.7486 -18.9217,-103.6033 -40.1666,-140.1724 -18.1845,-31.3005 -68.4916,-79.2915 -106.9521,-102.0285 -62.5319,-36.966 -163.097,-44.3531 -225.2752,-16.5468 -107.8269,48.2205 -184.1086,180.7703 -185.0357,321.526 l -0.2182,33.1678 H 5324.9575 4245.33 l -3.639,-33.1678 c -2.0013,-18.2423 -5.3199,-55.9114 -7.3748,-83.7093 -9.8454,-133.1827 -40.3801,-195.2589 -114.7464,-233.2726 -107.2067,-54.8014 -240.0589,-44.0104 -323.3399,26.2637 -51.5626,43.5097 -84.2247,121.7191 -100.9118,241.6266 -5.2715,37.8808 -13.1113,70.3329 -18.2408,75.5083 -12.3455,12.4528 -74.7087,16.0394 -126.3613,7.2673 -115.3946,-19.5979 -206.3347,-109.9438 -237.3344,-235.7847 -6.1778,-25.0816 -11.0559,-84.0415 -13.3357,-161.1658 l -3.5923,-121.6152 H 5329.6315 7362.8092 Z M 4008.0317,4543.843 c 28.5709,22.6696 32.1979,50.34 32.2563,246.0507 0.032,99.0294 -2.0585,187.6528 -4.6413,196.9405 -2.5825,9.2877 -11.992,25.6347 -20.9111,36.3266 -31.6407,37.9318 -91.0387,18.5017 -110.1935,-36.0465 -6.0956,-17.3585 -8.2462,-71.2755 -8.2462,-206.6972 0,-194.9315 3.2807,-221.134 30.0553,-240.0522 19.6751,-13.9015 62.0527,-12.097 81.6805,3.4781 z m 2714.9945,2.9678 c 26.2376,22.2709 33.0903,59.3017 36.9284,199.5427 3.5403,129.3803 -4.802,229.1439 -22.107,264.3745 -20.3095,41.3456 -74.8354,44.3502 -103.2429,5.689 -16.9326,-23.0445 -25.7196,-150.4719 -20.6225,-299.0608 4.3631,-127.1735 9.8544,-147.4042 46.7435,-172.1893 27.2664,-18.3203 39.1491,-18.0068 62.3005,1.6439 z"
       id="path30" />
    <path
       style="fill:#f9f6ee;fill-opacity:1;stroke:#f9f6ee;stroke-width:6.29013;stroke-opacity:1"
       d="m 7947.9464,4542.3179 c -26.4873,19.4088 -80.5627,68.4589 -183.3223,166.285 -43.945,41.8351 -63.2189,64.3093 -59.9428,69.8967 2.6565,4.5293 22.2984,28.1359 43.6507,52.4589 53.2119,60.6163 71.6954,89.825 71.5201,113.0205 -0.2115,27.9942 -20.204,73.2861 -89.5489,202.8634 -33.4711,62.545 -123.0459,238.1609 -199.0543,390.2577 -128.9682,258.0725 -139.6226,277.1404 -159.5408,285.5354 -35.3687,14.9076 -163.1422,50.3438 -387.8036,107.5528 -320.7009,81.6652 -344.7086,89.4999 -354.5921,115.7225 -17.9731,47.6863 -11.0566,417.0085 10.3158,550.8384 32.0865,200.9196 101.0897,336.4173 247.2476,485.4976 126.7453,129.28 254.0554,201.0309 441.5471,248.852 74.6735,19.0461 75.927,19.1477 99.1246,8.0436 37.1527,-17.7844 40.0556,-29.2303 43.2767,-170.6433 3.2457,-142.5336 8.4035,-167.2961 47.4675,-227.9045 13.2709,-20.591 49.0361,-67.2728 79.4781,-103.7374 30.4419,-36.4646 63.1146,-78.652 72.6067,-93.7496 9.4921,-15.0979 37.2879,-89.6354 61.7681,-165.6389 35.3255,-109.6728 48.2735,-141.9838 62.7454,-156.582 23.464,-23.6703 47.3259,-28.3855 75.0402,-14.8286 39.4954,19.3199 45.0762,38.081 51.7126,173.8592 7.9863,163.388 2.2497,921.9574 -7.2069,952.9522 -5.3893,17.6662 -17.1497,30.6373 -49.1932,54.2589 -281.6454,207.6214 -674.8123,273.2324 -1083.937,180.8847 -297.8698,-67.235 -594.0965,-222.6596 -921.1936,-483.333 -106.5096,-84.8809 -263.9063,-198.0176 -335.4629,-241.1315 -114.7121,-69.115 -306.8676,-136.2129 -448.3832,-156.5686 -70.8281,-10.1879 -315.6911,-10.1214 -448.2573,0.1214 -154.9664,11.9741 -311.8851,6.1671 -393.5163,-14.5626 -257.8512,-65.4791 -445.4861,-236.4406 -545.1205,-496.6834 -30.9402,-80.815 -51.9892,-172.3472 -71.9677,-312.9503 -26.3649,-185.5471 -27.4901,-189.6409 -61.6124,-223.973 -35.8564,-36.0759 -106.7705,-85.9999 -290.333,-204.3948 -78.2829,-50.4905 -165.0401,-109.5221 -192.7955,-131.1814 -27.7559,-21.6589 -97.5539,-90.8345 -155.1095,-153.7232 -122.4934,-133.8476 -449.0359,-464.9283 -531.2688,-538.6524 -56.4725,-50.6309 -57.5723,-51.2477 -115.1285,-64.6158 -65.9216,-15.3109 -321.3667,-67.1922 -361.8336,-73.4886 l -26.6847,-4.1522 16.347,46.3699 c 28.6528,81.2811 110.0545,286.1242 117.2056,294.9426 8.8558,10.919 32.4436,7.1137 125.94,-20.3162 l 72.7931,-21.3559 211.2653,218.693 c 116.1951,120.2814 250.3213,259.9423 298.0581,310.3576 174.1875,183.9616 151.9772,166.357 466.0637,369.4098 100.8409,65.1919 185.7536,123.1864 188.6978,128.8763 2.9423,5.6898 7.3144,38.7749 9.7147,73.5219 13.2348,191.6422 51.0918,346.9956 116.3231,477.348 10.4024,20.7863 40.3228,69.7201 66.492,108.7419 26.1672,39.0217 48.7598,74.0079 50.2023,77.7469 2.9438,7.6304 -60.2552,1.7689 -113.7456,-10.5494 -76.7794,-17.6819 -183.002,-80.1918 -255.9103,-150.5986 -63.6503,-61.4658 -88.0057,-99.8051 -195.3306,-307.482 -111.247,-215.2676 -172.9328,-313.3068 -240.5664,-382.3471 -98.2275,-100.2685 -251.2733,-179.7376 -406.8354,-211.2485 -66.2532,-13.4207 -232.717,-9.7005 -291.7198,6.5197 -172.1799,47.3324 -290.9898,142.1796 -291.1655,232.4408 -0.054,25.3888 3.2305,33.722 20.9482,53.2262 l 21.0091,23.1249 76.2019,4.8032 c 123.7207,7.7985 191.3958,34.9044 261.7612,104.8442 76.5739,76.1112 132.5754,179.0743 205.4648,377.7612 70.312,191.658 125.3905,293.2023 215.2869,396.9046 118.4703,136.663 280.7904,229.3878 468.5113,267.6355 77.9401,15.8797 259.5199,15.6364 334.0597,-0.4481 125.0285,-26.9788 237.4811,-74.2094 348.1439,-146.2242 l 52.477,-34.1491 105.876,52.5256 c 217.6315,107.9676 306.5252,122.9037 677.1905,113.7833 382.0614,-9.4011 429.7062,-8.2154 510.4255,12.7012 93.4605,24.2181 178.8423,54.1518 232.6292,81.5565 115.0587,58.623 337.9245,229.2755 325.6313,249.3414 -2.0005,3.2655 -19.9234,7.4683 -39.8279,9.3402 -50.9884,4.7942 -167.9467,44.1193 -249.1275,83.7645 -85.8182,41.9098 -155.5654,97.6466 -220.6184,176.3014 -88.7528,107.3125 -142.675,215.2938 -161.2954,323.0061 -18.1656,105.076 -12.1674,134.9851 35.2856,175.9583 40.4681,34.9416 51.3658,32.5719 124.2235,-27.0093 90.3015,-73.848 243.8968,-113.2929 376.7989,-96.7659 105.2346,13.0866 195.1107,41.0847 443.7121,138.2248 207.2191,80.9699 305.2952,112.9116 413.2288,134.5789 199.9244,40.1356 380.5315,41.9314 594.0535,5.9077 257.7215,-43.4828 525.188,-161.6711 711.6073,-314.4477 60.444,-49.5364 147.6037,-138.6384 206.1693,-210.7645 38.8842,-47.8881 53.4616,-61.4498 68.8915,-64.0914 10.765,-1.8427 104.1205,-5.3079 207.4584,-7.7008 103.3373,-2.3926 192.9496,-6.2212 199.1377,-8.5081 9.0303,-3.3373 -16.1536,-31.4732 -127.622,-142.5861 l -138.8722,-138.4283 7.9771,-50.8543 c 5.7716,-36.7864 8.7626,-189.3153 10.8136,-551.3837 l 2.8344,-500.5294 -23.4615,-42.7907 c -74.0964,-135.14 -150.9477,-185.2803 -284.6609,-185.7232 -102.7305,-0.3405 -159.9825,29.022 -231.8138,118.8872 -42.1513,52.7346 -56.5191,87.8166 -81.2205,198.3259 -9.8517,44.0754 -23.5099,91.124 -30.352,104.5525 -6.8414,13.4285 -36.9069,51.4234 -66.8101,84.4333 -93.0456,102.7081 -148.1579,199.4397 -166.2948,291.8772 -3.6138,18.4159 -9.5554,47.0866 -13.2035,63.7132 l -6.6344,30.2299 -22.2441,-13.2389 c -47.0355,-27.9943 -138.2062,-102.1057 -183.8215,-149.4258 -132.7586,-137.72 -181.7352,-285.9515 -197.0146,-596.2707 l -4.2175,-85.6608 49.3187,-13.5423 c 27.1253,-7.4482 146.551,-39.4394 265.3893,-71.0915 118.8383,-31.6522 255.0475,-70.3986 302.6865,-86.1033 75.1546,-24.775 89.8071,-31.8702 110.7252,-53.6129 34.0926,-35.4373 282.1396,-533.6381 449.3975,-902.6109 37.991,-83.807 47.0807,-109.7153 46.3712,-132.1639 -1.8001,-57.007 -70.0745,-420.1245 -81.0795,-431.2257 -3.0498,-3.0769 -16.1751,2.4158 -30.0254,12.5654 z"
       id="path31" />
    <path
       style="fill:#f9f6ee;fill-opacity:1;stroke:#f9f6ee;stroke-width:8.89576;stroke-opacity:1"
       d="m 7900.0171,4583.2463 c -82.2212,74.7741 -193.1463,184.6735 -193.1463,191.3606 0,3.1989 23.5662,34.1984 52.3685,68.8881 28.8022,34.6897 55.0055,71.4574 58.2306,81.7062 9.7301,30.9226 -1.7795,61.4378 -75.9554,201.3906 -39.0666,73.7101 -125.1216,242.5729 -191.2337,375.2509 -170.1511,341.4706 -150.0214,312.4798 -236.0917,340.0177 -39.773,12.7253 -181.9208,51.1169 -315.8841,85.3146 -279.1639,71.2637 -348.207,92.5867 -364.6835,112.6256 -15.177,18.4579 -15.1531,389.5945 0.032,508.2542 22.1721,173.2554 72.9044,310.4837 155.5028,420.6253 65.1297,86.8493 206.3439,216.6243 284.8775,261.8005 71.8104,41.3094 242.66,104.0146 308.0283,113.0526 29.1748,4.0338 41.8971,1.2731 59.2003,-12.8463 21.3702,-17.4388 22.1936,-22.3114 27.1308,-160.6907 6.1306,-171.7998 13.4415,-191.1494 123.7625,-327.5761 87.3401,-108.0083 94.2539,-121.2875 140.9485,-270.7253 42.2684,-135.2741 65.7835,-171.9305 110.2945,-171.9305 18.9783,0 35.5647,7.4051 49.0703,21.9072 17.6569,18.959 21.3716,35.4913 27.6043,122.8499 8.7528,122.6754 10.4113,698.3295 2.5078,870.1347 l -5.7166,124.2626 -32.5662,31.271 c -17.911,17.199 -64.3856,50.1772 -103.2758,73.285 -320.45,190.4042 -746.3171,218.5205 -1167.6003,77.0861 -240.9826,-80.9032 -472.587,-214.9045 -759.0918,-439.1937 -153.1798,-119.9162 -317.9574,-233.8956 -393.8972,-272.4654 -75.0044,-38.0946 -248.5149,-95.4021 -344.2568,-113.7022 -69.927,-13.3659 -111.2492,-14.3368 -336.5685,-7.9084 -335.831,9.5811 -436.5391,7.6823 -522.4648,-9.8504 -201.2609,-41.0665 -384.1178,-169.9686 -492.0258,-346.8456 -80.6494,-132.1978 -117.9955,-253.1518 -154.1069,-499.121 -12.0769,-82.2532 -27.9657,-158.6798 -35.3549,-170.0564 -20.1242,-30.9813 -113.6478,-99.2044 -310.6082,-226.5777 l -177.1406,-114.557 -371.9974,-377.1588 c -336.9152,-341.5889 -375.7571,-378.158 -411.8538,-387.7552 -67.743,-18.0107 -375.2512,-79.9573 -396.9516,-79.9647 -24.8715,-0.015 -26.6224,-7.0203 43.6395,174.6232 71.589,185.07 60.061,174.1142 155.565,147.8541 42.9965,-11.8225 86.7098,-21.8739 97.1408,-22.3362 13.8213,-0.6129 110.3768,93.9826 355.988,348.7583 290.8081,301.6614 348.0061,356.7918 417.1308,402.0545 44.0607,28.8504 153.4886,100.4699 243.1736,159.1542 l 163.0656,106.6988 6.0905,76.4593 c 9.2577,116.2121 36.3612,264.8741 62.8068,344.4957 30.5729,92.0496 62.4175,155.4452 123.6247,246.1214 27.1423,40.2086 47.2178,75.2558 44.6134,77.8827 -2.6041,2.6271 -33.6998,0 -69.1023,-5.832 -142.9163,-23.5543 -303.5601,-132.8716 -383.9999,-261.3119 -13.4302,-21.4451 -64.0147,-115.3815 -112.4078,-208.7473 -167.9628,-324.048 -248.0749,-421.0217 -421.0529,-509.6675 -194.4097,-99.6285 -397.8723,-117.8439 -579.408,-51.872 -176.8199,64.2581 -274.7178,189.8776 -203.7576,261.4578 22.002,22.1949 32.4122,25.1755 104.3453,29.8765 217.7562,14.2311 322.6446,123.7567 455.5583,475.6996 62.9416,166.6588 101.0079,245.3442 157.6855,325.9339 116.2554,165.301 257.7103,266.3899 458.1038,327.3758 72.1604,21.9609 93.5592,24.3282 225.8548,24.9875 115.7992,0.5767 159.9336,-2.779 212.5695,-16.1639 118.9914,-30.2578 231.0438,-81.7278 340.2251,-156.2765 l 25.7982,-17.615 96.5554,48.8481 c 225.0706,113.8644 291.0852,124.057 755.2694,116.6142 379.71,-6.0884 389.1237,-5.2659 556.0823,48.588 119.7373,38.6225 298.577,150.0968 409.3721,255.1695 l 44.2519,41.9666 -53.142,10.2261 c -152.8472,29.412 -298.152,98.5808 -391.1647,186.204 -156.0635,147.0207 -242.1165,315.1052 -242.1165,472.9177 0,56.3115 1.0203,58.9082 35.4544,90.2895 19.4988,17.7708 39.6897,32.3106 44.8677,32.3106 14.75,0 44.9221,-18.0293 84.1524,-50.2864 83.4064,-68.5797 219.43,-106.7474 349.2363,-97.9947 99.2817,6.6947 201.3371,35.9861 428.1888,122.8971 103.0579,39.483 220.7228,83.3629 261.4792,97.5111 457.8843,158.9457 999.2153,87.0198 1409.1839,-187.2369 83.6947,-55.9891 221.4628,-184.8906 296.5204,-277.4354 48.494,-59.7934 50.1951,-60.9193 100.184,-66.3318 27.9685,-3.0282 106.6516,-6.3793 174.8516,-7.4472 68.1993,-1.0679 143.8669,-4.1312 168.1512,-6.8076 l 44.1526,-4.8663 -139.8445,-138.774 -139.8437,-138.7741 8.7625,-57.7859 c 4.8194,-31.7824 11.5534,-277.7646 14.9641,-546.6273 l 6.2024,-488.841 -37.577,-63.8048 c -72.872,-123.7356 -148.5138,-170.864 -274.9004,-171.2773 -89.7793,-0.2937 -142.7499,23.1689 -207.9274,92.0982 -57.8224,61.1511 -76.9612,100.6049 -101.854,209.9635 -25.6044,112.4845 -29.8314,120.6443 -112.2764,216.7709 -98.7635,115.1525 -138.0119,191.595 -162.4772,316.4472 -5.5368,28.2557 -13.4248,51.3737 -17.5289,51.3737 -14.8076,0 -156.2465,-111.3445 -204.736,-161.1742 -123.7108,-127.1275 -175.8379,-281.4089 -192.3215,-569.2123 l -6.2677,-109.4357 44.3795,-12.853 c 24.4091,-7.0693 144.0221,-39.6316 265.8069,-72.3607 287.9752,-77.3921 378.8754,-107.0858 410.8212,-134.2015 35.6857,-30.29 350.0828,-660.3757 476.7722,-955.5022 l 30.6832,-71.4764 -14.9681,-93.8127 c -15.7118,-98.4725 -54.9265,-306.0834 -62.8643,-332.8118 -7.6791,-25.8557 -26.2215,-18.1729 -84.8731,35.1662 z"
       id="path32" />
    <path
       style="fill:#f9f6ee;fill-opacity:1;stroke:#f9f6ee;stroke-width:8.89576;stroke-opacity:1"
       d="m 7864.7459,4616.2814 c -50.296,46.11 -107.1852,100.3695 -126.4196,120.5765 l -34.9729,36.7397 19.6743,24.6098 c 10.8219,13.5356 37.8435,48.6128 60.0482,77.9493 47.7559,63.0958 47.549,73.0645 -3.6151,174.4915 -251.0437,497.6621 -375.6886,738.0503 -391.4858,755.0131 -20.4809,21.9917 -120.4851,52.35 -452.8397,137.4696 -234.5975,60.0825 -269.3997,70.782 -293.0079,90.0814 -20.109,16.4391 -20.2429,18.0184 -19.4918,229.5244 0.8222,231.1029 11.6205,341.7577 44.5748,456.7799 42.8558,149.5819 109.4835,252.7709 250.299,387.649 104.5294,100.1216 187.8558,150.4325 326.7338,197.2769 132.9435,44.8426 168.4332,49.5706 197.0195,26.2467 21.2143,-17.3097 22.2253,-22.9384 27.0253,-150.5761 6.553,-174.2597 14.6777,-197.1141 115.4826,-324.8422 96.2843,-122.0002 101.5818,-132.0688 150.3384,-285.7502 27.1639,-85.6171 45.2709,-127.7458 62.404,-145.1863 26.9387,-27.4212 56.3437,-31.2822 84.8504,-11.1405 41.196,29.1068 42.5058,47.4314 42.5058,594.5142 0,590.8939 8.1156,537.3982 -91.342,602.0995 -363.4261,236.4216 -834.581,263.9844 -1311.001,76.694 -205.1023,-80.63 -420.3902,-211.9095 -674.6412,-411.3854 -157.9992,-123.961 -324.7435,-236.5758 -409.5932,-276.6306 -85.0931,-40.169 -254.923,-93.7999 -340.9087,-107.6565 -38.2793,-6.1684 -198.7021,-8.6507 -445.1663,-6.8879 l -385.3197,2.7559 -75.285,-25.4759 c -183.177,-61.9844 -324.056,-170.71 -423.3692,-326.7392 -74.4938,-117.0374 -116.502,-248.5059 -148.6792,-465.2958 -23.7458,-159.9876 -26.3865,-172.9978 -41.3326,-203.6167 -14.3157,-29.3321 -109.3556,-99.6398 -312.1836,-230.9444 L 3087.907,5519.9487 2715.9096,5142.8793 c -337.8115,-342.4174 -375.6612,-378.0276 -411.8537,-387.4971 -76.4504,-20.0015 -372.6598,-79.9847 -394.9821,-79.9847 -19.2255,0 -21.6111,2.9213 -16.4115,20.1025 15.6079,51.5723 111.4948,290.9006 122.7659,306.415 12.5125,17.2223 13.9441,17.1228 104.1574,-7.2506 l 91.4711,-24.7129 358.71,364.8857 358.7121,364.8852 192.7113,123.2123 c 284.9162,182.1643 260.2881,159.3646 267.7037,247.8252 21.0803,251.4457 74.0071,421.7418 181.3926,583.6389 22.8148,34.398 44.691,68.0155 48.6104,74.7057 5.8173,9.9279 -1.6271,11.0485 -40.5045,6.0961 -109.2238,-13.913 -215.3673,-64.9689 -313.0807,-150.5942 -64.9219,-56.8902 -99.0177,-109.4479 -212.6509,-327.7946 -151.522,-291.1533 -235.8747,-399.5542 -374.435,-481.1854 -168.4528,-99.2417 -343.8941,-134.9358 -515.1062,-104.8 -227.672,40.0735 -401.3126,201.1897 -312.9231,290.3525 21.5955,21.7858 33.1257,25.2754 99.6422,30.1579 41.3691,3.0369 94.8533,11.5637 118.8513,18.9487 136.4435,41.9883 239.3513,180.9217 344.7368,465.4226 57.6023,155.4985 81.1525,205.5016 136.1718,289.1073 122.1161,185.5697 276.4478,298.8259 489.5943,359.2891 65.4619,18.5698 94.3531,21.3643 221.4264,21.4188 124.85,0.054 157.0221,-2.9209 220.8203,-20.4155 98.3791,-26.977 182.4708,-63.7 270.3503,-118.0634 39.479,-24.4221 76.7155,-44.4038 82.7483,-44.4038 6.0335,0 50.9074,20.2171 99.7206,44.927 99.4127,50.3238 154.3122,72.2359 238.6391,95.2467 50.8861,13.886 105.9053,15.7978 473.8532,16.4663 295.8105,0.5372 429.0999,3.9191 460.5683,11.6852 136.1024,33.5882 262.2017,87.7233 363.1404,155.8982 71.336,48.1811 205.9636,157.5003 211.327,171.6005 2.9611,7.7822 -9.3424,13.1522 -39.3261,17.1644 -60.5599,8.1039 -213.6246,62.8042 -282.7146,101.0329 -76.0192,42.0629 -214.2444,181.8513 -264.7698,267.7661 -53.8464,91.558 -82.6418,180.0134 -87.6378,269.2086 l -4.1666,74.3833 33.9427,35.0648 c 18.6683,19.2858 42.1021,34.9186 52.0742,34.74 9.9716,-0.1788 44.0381,-20.303 75.7022,-44.7203 62.3343,-48.0693 122.3903,-74.6581 212.5695,-94.1121 144.4792,-31.1682 277.8135,-1.7095 643.8789,142.2572 250.68,98.5877 389.7995,134.4497 578.2364,149.0577 113.2996,8.7833 289.5905,0.407 394.7591,-18.7568 226.4463,-41.2624 446.0313,-128.5343 623.965,-247.9891 72.9955,-49.0044 255.6123,-222.2872 320.2715,-303.9009 l 30.7169,-38.7712 210.8167,-7.6835 c 115.9502,-4.2262 213.3439,-10.2727 216.4324,-13.4367 3.0873,-3.1642 -57.4661,-66.6908 -134.5631,-141.1708 l -140.1775,-135.4176 9.106,-58.0745 c 5.0082,-31.941 11.8898,-277.9545 15.2934,-546.6968 l 6.1874,-488.6224 -37.3002,-63.3351 c -65.4154,-111.0741 -120.8912,-153.0094 -224.5008,-169.7058 -106.2298,-17.1189 -184.6179,10.2467 -260.1646,90.8256 -58.7331,62.6445 -70.0802,86.1042 -101.4898,209.8315 -14.3646,56.5855 -29.7383,109.7073 -34.1638,118.0484 -4.4255,8.341 -40.4075,53.1602 -79.9599,99.5982 -83.7812,98.3661 -135.5211,196.1975 -155.4282,293.8913 -7.4526,36.578 -15.3121,68.2817 -17.4642,70.4529 -12.5735,12.6834 -197.4853,-139.9851 -247.8065,-204.5963 -102.6616,-131.8152 -139.0063,-268.3718 -157.37,-591.2817 l -2.4135,-42.4357 44.3486,-12.6711 c 24.3917,-6.969 143.9906,-39.5236 265.7761,-72.3435 290.4603,-78.276 378.9459,-107.3271 411.7726,-135.1905 29.1082,-24.7073 305.0642,-572.0636 437.8299,-868.4323 l 69.4225,-154.971 -15.3426,-95.1964 c -16.2572,-100.869 -55.4376,-307.9268 -63.2389,-334.1952 -2.5543,-8.5995 -10.0555,-15.6354 -16.6705,-15.6354 -6.6151,0 -53.179,37.7266 -103.4738,83.8367 z"
       id="path33" />
  </g>
</svg>
