<?xml version="1.0" encoding="UTF-8" standalone="no"?>
<svg
   version="1.0"
   width="1024.000000pt"
   height="1024.000000pt"
   viewBox="0 0 1024.000000 1024.000000"
   preserveAspectRatio="xMidYMid meet"
   id="svg7"
   sodipodi:docname="splash_light.svg"
   inkscape:version="1.3 (0e150ed6c4, 2023-07-21)"
   inkscape:export-filename="splash_light.png"
   inkscape:export-xdpi="81"
   inkscape:export-ydpi="81"
   xmlns:inkscape="http://www.inkscape.org/namespaces/inkscape"
   xmlns:sodipodi="http://sodipodi.sourceforge.net/DTD/sodipodi-0.dtd"
   xmlns="http://www.w3.org/2000/svg"
   xmlns:svg="http://www.w3.org/2000/svg">
  <defs
     id="defs7" />
  <sodipodi:namedview
     id="namedview7"
     pagecolor="#505050"
     bordercolor="#eeeeee"
     borderopacity="1"
     inkscape:showpageshadow="true"
     inkscape:pageopacity="0"
     inkscape:pagecheckerboard="true"
     inkscape:deskcolor="#505050"
     inkscape:document-units="pt"
     showguides="true"
     inkscape:zoom="0.5"
     inkscape:cx="656"
     inkscape:cy="663"
     inkscape:window-width="2560"
     inkscape:window-height="1009"
     inkscape:window-x="-8"
     inkscape:window-y="-8"
     inkscape:window-maximized="1"
     inkscape:current-layer="svg7"
     labelstyle="default" />
  <g
     transform="matrix(0.0859375,0,0,-0.0859375,71.999997,952)"
     fill="#0b0b0b"
     stroke="none"
     id="g7">
    <path
       d="m 6682.7241,8937.0927 c -173.538,-29.722 -284.8638,-64.397 -564.8173,-176.68 -386.3676,-155.2138 -527.1618,-183.2846 -715.4341,-143.6554 -104.7786,23.1171 -166.9901,52.8389 -239.0248,115.5851 -65.486,59.4433 -91.68,59.4433 -145.7052,4.9536 -39.292,-39.6291 -40.9297,-51.1877 -34.3807,-153.5631 14.7338,-204.7504 181.7239,-462.3399 386.3673,-594.4369 86.7691,-54.4901 304.5102,-133.7483 374.9071,-133.7483 45.8411,-1.6514 45.8411,-1.6514 -27.831,-66.0487 -103.1406,-90.8167 -276.6782,-208.053 -368.3592,-247.6821 -42.5654,-18.1633 -135.8836,-49.5364 -209.5554,-67.6998 -124.4233,-33.0244 -155.5288,-34.6756 -428.9331,-21.4658 -546.8081,24.7682 -715.4351,3.3024 -962.6441,-125.4923 l -127.6987,-64.3974 -88.4058,57.7926 C 3077.7195,7612.8191 2476.8834,7518.7 2172.3748,7107.5476 c -98.2291,-130.4461 -140.7942,-217.9604 -219.379,-442.5255 -127.6969,-364.9184 -284.8643,-526.7373 -514.0645,-526.7373 -80.2214,0 -111.3263,-6.6048 -130.973,-29.7218 -101.5029,-112.2826 86.769,-300.521 348.713,-350.0575 240.6626,-46.234 481.3229,13.2098 700.7018,170.075 124.4235,89.1656 225.9264,236.1238 361.8101,515.1788 104.7766,213.0066 145.7071,280.7065 216.103,353.3599 104.7787,104.0265 247.2099,181.6335 361.8099,194.8433 l 81.8586,9.9073 -58.9381,-82.5607 c -124.4233,-175.0287 -193.1825,-381.4305 -214.4661,-645.6247 l -11.4603,-137.0508 -207.9186,-135.3995 c -112.9634,-74.3048 -239.0235,-155.2142 -279.9516,-179.9825 -40.9287,-23.117 -114.6002,-85.863 -163.7147,-140.3531 -49.1147,-52.8388 -227.5654,-239.4262 -396.1906,-414.4549 l -309.4218,-318.6843 -109.6896,33.0243 c -60.5748,18.1633 -114.6,28.0707 -119.5128,21.4659 -16.3706,-16.5122 -163.7145,-402.8964 -157.1649,-409.5012 6.5475,-8.2561 469.8624,87.5142 520.6141,105.6776 42.5651,16.5121 566.4528,543.2496 743.2652,746.3488 68.7608,80.9096 145.7064,140.3533 302.8737,241.0774 314.3323,198.1457 402.738,264.1944 422.385,315.382 8.1845,24.7682 24.5572,123.8409 36.0173,219.6114 40.9281,374.8256 188.272,653.8809 430.5692,810.7461 199.7321,130.4461 401.1028,171.7264 699.0642,145.3069 239.0244,-21.4658 484.5961,-19.8146 605.7448,1.6513 135.8836,24.7682 360.1731,102.3752 455.1286,158.5164 101.5028,59.4438 330.7039,224.5653 453.4899,326.9406 137.521,115.5849 383.0934,274.1015 556.6316,361.6159 494.4198,247.6821 1028.1303,290.6136 1463.6126,115.585 129.3345,-51.1876 307.7842,-161.8191 329.067,-203.0994 21.2834,-39.6291 21.2834,-1205.3863 0,-1261.5278 -21.2828,-57.7925 -72.0345,-82.5606 -112.9636,-56.1413 -37.6544,23.1171 -45.8407,44.5829 -106.4144,246.031 -36.0173,123.8411 -54.0263,155.2142 -148.9801,264.1944 -126.0614,143.6556 -147.3442,201.448 -142.4332,397.9426 3.2745,135.3996 0,146.958 -34.38,170.0751 -34.3792,21.4657 -49.1145,21.4657 -127.6973,1.6512 -268.4925,-72.6534 -417.4732,-165.1214 -594.2857,-371.5233 -178.449,-208.053 -239.0242,-426.0133 -239.0242,-858.6314 0,-274.1016 1.6372,-282.3576 37.6544,-303.8233 19.6463,-11.5586 216.1043,-66.0486 437.1196,-118.8875 239.0235,-59.4436 409.287,-108.9802 422.385,-123.8411 11.4592,-13.2098 80.2199,-146.958 152.2545,-297.2184 73.6717,-150.2607 175.176,-350.0575 225.927,-445.8279 152.2552,-280.7065 150.618,-262.5431 57.2999,-373.1744 l -80.22,-92.4682 163.7153,-155.2139 c 134.2455,-125.4923 165.3517,-148.6094 175.1745,-125.4923 16.3717,37.9779 94.9552,467.2935 94.9552,516.83 0,34.6755 -388.0049,850.3752 -528.8002,1111.2672 -52.3882,97.4215 -58.9372,102.3753 -162.078,137.0508 -60.5738,21.4657 -211.1925,64.3972 -335.616,95.7703 -124.4227,33.0244 -265.2172,71.0023 -314.3317,84.212 l -88.4063,24.7681 11.46,189.8897 c 19.6455,335.1965 111.3262,528.3885 329.067,693.51 63.849,49.5363 121.1498,89.1656 126.0607,89.1656 4.911,0 13.0966,-34.6755 19.6463,-77.6072 16.3702,-120.5385 81.8565,-244.3796 189.9083,-358.3135 93.3179,-97.4215 98.229,-108.9801 122.787,-232.8211 24.5572,-132.0972 47.478,-181.6336 121.149,-260.8918 75.3089,-82.5607 157.1662,-115.585 273.4042,-107.3288 130.9717,8.256 224.2897,69.3507 288.1388,186.587 l 45.8399,82.5607 v 586.181 c 0,338.499 -6.549,610.9494 -16.3717,643.9737 -11.46,39.6291 -9.8235,59.4437 1.6373,67.6997 11.46,6.6049 88.4062,80.9096 173.5376,165.1215 L 8960,8227.0706 l -260.307,8.2563 -260.3063,8.256 -81.8579,100.7241 c -201.3698,242.7285 -443.6678,406.1987 -771.0976,516.8297 -284.8649,95.771 -622.1174,123.842 -903.7071,75.956 z"
       id="path1"
       style="stroke-width:1.64425" />
    <path
       d="m 6022.9528,6324.8721 c -55.6637,-64.3975 -40.9298,-158.5166 52.389,-315.382 l 78.5823,-133.7485 -83.4947,-21.4657 c -52.3887,-13.2096 -181.7228,-21.4658 -353.624,-21.4658 -235.7497,1.6512 -294.6877,6.6048 -461.6761,46.2341 -219.3791,52.8388 -407.6509,113.9338 -708.8861,231.17 -314.333,122.1897 -289.7759,123.8411 -466.5889,-46.234 -212.8293,-203.0994 -317.6059,-264.1944 -736.7172,-434.2693 -451.8527,-183.285 -638.488,-264.1944 -667.958,-288.9627 -13.097,-9.9072 -130.971,-142.0042 -261.944,-292.2648 -129.3341,-150.2605 -284.8644,-323.638 -342.1633,-384.7329 l -106.4158,-113.9338 -126.0601,-8.256 -127.6971,-9.9073 -36.0178,-158.5166 c -19.6465,-87.5144 -40.9279,-175.0288 -44.2039,-194.8433 -9.821,-33.0243 0,-33.0243 219.379,36.3267 126.06,37.9779 240.6602,77.6071 253.7572,84.2119 13.097,8.2562 104.7792,105.6778 203.0084,214.6579 96.5906,110.6313 258.6696,290.6136 356.8972,399.5939 l 180.0876,199.7969 221.016,97.4216 c 121.1477,54.49 327.4292,140.3532 458.4017,193.192 130.9716,51.1877 294.6862,123.8411 363.4475,160.1679 122.7865,64.3974 366.7205,255.9381 384.7304,303.8233 13.0973,34.6755 39.2913,29.7219 222.6521,-49.5364 268.4919,-115.5849 630.302,-217.9602 903.7061,-257.5893 168.6274,-23.117 527.1631,-19.8146 666.3213,6.6048 65.4853,13.2097 180.0861,42.9316 252.1204,66.0486 122.7867,39.6291 137.5207,41.2803 189.9096,19.8145 68.7606,-29.7219 297.9614,-54.49 689.2409,-74.3046 162.078,-8.2561 294.687,-18.1633 297.9607,-21.4657 1.6373,-3.3026 52.3891,-66.0487 109.6898,-138.7021 l 108.0518,-133.7484 -63.8498,-80.9094 c -57.2993,-74.3047 -60.5738,-82.5608 -36.0165,-108.9802 36.0165,-39.6292 255.3952,-191.5409 306.147,-211.3554 40.9282,-14.861 42.5655,-13.2098 44.2028,46.2339 0,33.0243 3.2744,74.3048 6.549,90.8169 4.911,29.7218 13.0972,305.4746 9.8227,359.9647 -1.6373,29.7217 -250.4842,363.2671 -311.0587,419.4083 -31.1063,28.0707 -78.5835,34.6755 -373.2698,51.1877 -396.1905,24.7681 -682.6916,52.8388 -739.9928,75.9558 -78.5826,29.722 -181.723,130.4461 -270.1294,267.4967 -49.114,75.956 -101.5034,142.0045 -116.2381,148.6095 -50.7513,18.1633 -117.8744,9.9072 -144.0684,-18.1634 z"
       id="path2"
       style="stroke-width:1.64425" />
    <path
       d="m 3653.9958,5294.5143 c -101.5033,-41.2803 -178.4489,-166.7726 -191.5459,-313.7307 l -9.8234,-94.1192 -108.0525,-6.6048 c -271.7674,-14.861 -522.251,-239.4262 -599.1967,-533.3422 -21.2836,-82.5608 -24.5573,-267.4967 -24.5573,-1248.318 0,-1101.3599 1.637,-1155.8499 32.7439,-1254.9228 40.9281,-135.3996 88.4058,-211.3554 194.8193,-320.3356 99.866,-100.724 232.4759,-178.3312 369.9968,-214.6579 144.0699,-37.9779 3940.6208,-37.9779 4099.4243,0 140.7952,34.6755 252.1214,97.4218 361.8112,206.4019 116.2365,115.5849 191.5455,247.6822 221.0152,391.3378 34.3793,165.1213 34.3793,2239.0464 0,2404.1679 -65.4869,312.0794 -320.8822,549.8543 -609.0202,569.6689 l -119.5125,8.256 v 67.6998 c 0,102.3753 -29.4683,186.5871 -86.769,252.6358 -63.8483,74.3046 -134.2462,104.0265 -240.6608,104.0265 -106.4152,0 -178.4497,-31.3731 -235.7495,-100.7241 -57.3009,-67.6999 -73.6717,-112.2826 -88.4062,-229.5188 l -11.4602,-90.8168 -1245.8716,-4.9536 -1247.5089,-3.3024 -11.4602,92.468 c -19.6447,161.8189 -85.1318,265.8455 -199.7324,313.7307 -60.5748,26.4194 -191.5455,28.0706 -250.4834,4.9536 z m 186.6351,-298.8698 c 21.2835,-29.7219 26.1941,-85.8632 26.1941,-260.8918 0,-244.3796 -16.3709,-297.2185 -88.406,-297.2185 -73.6719,0 -83.4952,36.3267 -81.8579,292.2648 1.6385,203.0995 4.9123,241.0774 31.1065,269.1479 39.2912,42.9317 81.8578,41.2805 112.9633,-3.3024 z m 3159.7001,0 c 39.2918,-56.1412 37.6545,-485.4569 -1.6373,-528.3884 -34.3799,-37.978 -62.2117,-37.978 -103.14,3.3024 -29.469,29.7218 -32.7434,54.4901 -32.7434,267.4966 0,194.8434 4.9117,239.4261 27.8317,264.1944 36.0172,39.6291 80.2208,37.9779 109.689,-6.605 z M 3459.1742,4495.3267 c 4.9125,-54.4901 21.2834,-120.5387 34.3805,-148.6093 55.7535,-211.3878 337.9788,-262.7625 512.2746,-133.4387 75.8496,82.2187 78.7376,131.7875 88.5595,265.5358 l 9.8228,115.585 H 5356.632 6609.0523 l 8.1855,-99.0728 c 9.8229,-107.329 44.0499,-153.1889 96.5918,-227.8677 63.8489,-69.351 121.1496,-109.7174 222.6524,-109.7174 108.0525,0 178.4497,42.0178 243.936,108.0662 58.9365,61.0951 76.9463,105.6778 90.0435,229.5189 9.8227,95.7703 11.46,99.0728 58.9372,104.0264 78.5828,9.9072 163.7145,-24.7681 250.4843,-104.0264 108.051,-97.4216 146.787,-203.0994 150.0607,-369.8721 l -0.2789,-130.0416 -2351.7493,-0.4043 -2375.9406,1.247 0.3186,131.7693 c 0.479,198.5485 31.2922,300.1279 140.9815,397.5496 81.8587,72.6534 180.0159,75.4297 256.9633,72.1273 47.4761,-3.3024 49.1144,-6.6049 58.9359,-102.3752 z m 4271.326,-1662.7728 v -880.0972 l -39.2917,-82.5606 C 7642.094,1764.2184 7535.6787,1653.587 7439.087,1609.0041 l -76.9455,-36.3267 H 5373.003 3383.8652 l -93.3165,46.2341 c -114.5998,56.1412 -194.8216,145.3069 -239.0234,260.8918 -31.1069,84.2119 -32.7437,143.6556 -44.2041,941.192 -6.5481,468.9448 -4.9628,873.6039 -4.8583,889.3604 24.5892,0.342 649.896,0.6441 2372.1776,0.6441 h 2355.8597 z"
       id="path3"
       sodipodi:nodetypes="cccccscccccccccscscccccccccsscccccsscccccccccccsccccccccsccccccccccccccscc"
       style="stroke-width:1.64425" />
    <path
       d="m 6715.4664,3100.0506 v -231.17 h 237.3874 237.387 v 231.17 231.17 h -237.387 -237.3874 z"
       id="path5"
       style="stroke-width:1.64425" />
    <path
       d="m 5664.2708,3098.9217 v -231.1701 h 237.3864 237.3871 v 231.1701 231.17 h -237.3871 -237.3864 z"
       id="path5-7"
       style="stroke-width:1.64425" />
    <path
       d="m 5666.9256,2225.4962 v -231.17 h 237.3866 237.3868 v 231.17 231.1699 h -237.3868 -237.3866 z"
       id="path5-7-4"
       style="stroke-width:1.64425" />
    <path
       d="m 6713.9312,2223.836 v -231.1701 h 237.3873 237.3863 v 231.1701 231.1699 h -237.3863 -237.3873 z"
       id="path5-7-8"
       style="stroke-width:1.64425" />
    <path
       d="m 3520.5968,3098.8214 v -231.1699 h 237.3873 237.3874 v 231.1699 231.1699 h -237.3874 -237.3873 z"
       id="path5-7-1"
       style="opacity:0.5;stroke-width:1.64425" />
    <path
       d="m 4540.211,3100.6257 v -231.1699 h 237.3866 237.3864 v 231.1699 231.17 H 4777.5976 4540.211 Z"
       id="path5-7-1-3"
       style="opacity:0.5;stroke-width:1.64425" />
    <path
       d="m 4538.6516,2224.2167 v -231.17 h 237.3864 237.3866 v 231.17 231.1701 H 4776.038 4538.6516 Z"
       id="path5-7-1-8"
       style="opacity:0.5;stroke-width:1.64425" />
    <path
       d="m 3516.6602,2226.3262 v -231.1698 h 237.3867 237.387 v 231.1698 231.1701 h -237.387 -237.3867 z"
       id="path5-7-5"
       style="opacity:0.5;stroke-width:1.64425" />
    <path
       style="fill:#0b0b0b;fill-opacity:1;stroke-width:3.66091"
       d="m 4253.8499,1286.0591 c -376.0515,2.8029 -811.3083,12.4156 -893.0778,19.7239 -98.4621,8.8002 -246.1557,78.2644 -352.3396,165.714 -58.8758,48.4884 -133.9378,131.5095 -171.7259,189.9363 -38.4723,59.4843 -80.2238,162.6747 -93.703,231.5952 -18.3101,93.6147 -21.1784,294.6437 -18.9704,1329.8746 1.7893,838.4974 3.5424,976.8772 13.4871,1064.3546 6.8891,60.5996 24.9908,119.4746 59.0674,192.0986 l 18.5436,39.5229 h 158.5734 158.5757 l -21.6508,-22.9784 c -86.2226,-91.5081 -110.7005,-183.7591 -110.7252,-417.286 l -0.017,-85.4791 H 5366.0658 7732.244 l -1.8083,105.7 c -2.2673,132.445 -9.3015,177.0896 -38.9558,247.2466 -23.4,55.3615 -62.4323,108.6595 -110.322,150.6427 l -25.3477,22.2225 183.4695,-0.9535 183.4688,-0.9535 13.7106,-27.574 c 36.8558,-74.1263 62.1353,-160.3249 68.0663,-232.0953 12.3247,-149.1667 18.4066,-528.6331 18.405,-1148.4408 0,-621.218 -6.1193,-1002.6103 -18.4582,-1150.7533 -12.3233,-147.9422 -90.5258,-302.7291 -218.3753,-432.2338 -75.249,-76.2225 -128.7255,-115.9845 -212.1187,-157.7168 -52.8683,-26.4572 -126.3136,-52.7281 -164.2208,-58.7406 -59.2672,-9.4007 -341.5372,-16.9165 -837.5597,-22.3016 -273.0068,-2.9637 -1961.7377,-3.7837 -2318.3564,-1.1255 z M 7415.189,1595.492 c 84.0502,40.3564 142.1295,84.9316 197.721,151.7483 39.4117,47.3713 59.9303,80.1038 91.4805,145.9424 l 26.9932,56.3307 v 882.1031 882.1031 H 5365.0422 2998.7007 l 2.4551,-390.631 c 4.7878,-761.7215 14.9988,-1254.3019 28.1401,-1357.5581 13.9014,-109.2342 78.0948,-219.424 168.9253,-289.9584 39.9636,-31.0346 42.1511,-32.3643 116.9865,-71.0791 l 65.6128,-33.9441 1990.9559,-0.1245 1990.9538,-0.1244 z"
       id="path25" />
    <path
       style="fill:#0b0b0b;fill-opacity:1;stroke-width:3.66091"
       d="m 4255.6722,1286.0508 c -383.0866,2.8815 -811.802,12.3402 -894.9001,19.7439 -97.1425,8.6552 -239.9269,75.0113 -346.2957,160.9338 -62.1988,50.2437 -138.0532,133.2985 -177.6287,194.486 -38.7399,59.8987 -79.4865,160.0056 -93.5074,229.7274 -17.3977,86.5339 -20.3095,254.3054 -20.3355,1172.0321 -0.025,945.7903 3.7536,1180.2141 20.3938,1264.7257 7.8068,39.6338 28.163,98.1611 51.4718,147.9803 l 20.2134,43.1992 h 158.5743 158.5764 l -19.8854,-21.1401 c -87.7334,-93.2689 -112.0536,-183.9975 -112.3459,-419.1243 l -0.1091,-85.4791 h 2365.7438 2365.7429 l -0.015,78.126 c -0.023,126.1722 -8.5567,191.6925 -33.8122,259.5074 -22.3875,60.1144 -63.7815,118.6543 -118.5383,167.6398 l -22.9582,20.5383 183.3473,-0.9535 183.3472,-0.9535 13.7092,-27.574 c 36.6811,-73.7792 61.9846,-159.4596 67.9823,-230.1928 12.3623,-145.7883 18.5033,-527.8046 18.4905,-1150.3434 -0.015,-626.31 -5.9407,-997.3238 -18.3577,-1148.9148 -11.7939,-143.9754 -84.0257,-292.1589 -205.5969,-421.7818 -74.4818,-79.414 -158.328,-141.0617 -246.2167,-181.0274 -41.592,-18.9138 -110.3258,-42.1614 -140.4001,-47.4873 -53.3504,-9.4481 -339.498,-17.1339 -838.3393,-22.5174 -276.8376,-2.9876 -1962.9033,-3.8249 -2318.3565,-1.1505 z m 3163.3545,311.6616 c 30.6893,15.0747 70.3275,37.8234 88.0838,50.5522 53.5477,38.3848 121.3455,111.1044 156.972,168.3667 5.6625,9.0994 23.121,42.6169 38.7983,74.4835 l 28.5029,57.9392 v 882.3327 882.3329 H 5365.0525 2998.7214 l 2.4403,-394.3076 c 1.3428,-216.8691 3.2941,-441.4591 4.3394,-499.0888 1.0429,-57.6295 3.4841,-207.3559 5.4258,-332.7257 6.0934,-393.6946 11.6152,-508.7476 27.3407,-569.6441 20.3222,-78.6887 73.1129,-165.6847 133.8524,-220.5789 36.3198,-32.8257 72.8086,-56.5176 143.0877,-92.9054 l 65.6128,-33.9727 1991.2038,-0.098 1991.2032,-0.098 z"
       id="path26" />
    <path
       style="fill:#0b0b0b;fill-opacity:1;stroke-width:7.32156"
       d="m 1632.6514,4171.4472 c 1.5935,5.0553 19.9063,85.2955 40.694,178.3116 20.788,93.0162 39.8856,171.4087 42.438,174.2056 2.5548,2.797 60.4148,9.1596 128.5808,14.1391 l 123.9363,9.0536 65.9126,70.8316 c 78.8591,84.7443 261.6344,289.6846 429.6753,481.7818 67.218,76.8396 146.0964,164.8208 175.2852,195.5138 52.6144,55.3276 54.1831,56.2948 183.2017,112.9071 71.5733,31.4057 235.1146,100.1075 363.4268,152.6707 608.7413,249.3724 663.6694,280.67 925.6704,527.4477 43.9885,41.4332 93.0266,82.0461 108.9731,90.2512 51.5399,26.5195 90.5784,17.6594 339.603,-77.0758 354.7192,-134.9437 613.0584,-214.6832 816.5275,-252.0303 86.7962,-15.9317 465.2075,-23.5163 591.6645,-11.8591 69.362,6.3939 177.0493,26.439 187.3344,34.8706 1.4132,1.1579 -25.4954,51.1244 -59.7967,111.0361 -72.4828,126.602 -99.5155,193.2549 -99.5155,245.366 0,80.5713 36.204,117.1704 115.9529,117.2173 45.0016,0.025 47.6984,-1.0377 74.4189,-29.3683 15.2492,-16.1676 56.5697,-71.3373 91.8235,-122.5996 104.6357,-152.1466 210.8491,-253.9475 286.3462,-274.4516 73.6788,-20.01 302.5697,-43.3481 645.3145,-65.7967 442.5254,-28.9844 432.5287,-26.8087 500.25,-108.8742 57.7664,-70.0004 171.8587,-222.3491 220.476,-294.4006 l 41.1232,-60.9468 -0.4935,-141.2621 c -0.2715,-77.6945 -4.3725,-190.8504 -9.1125,-251.4579 -7.4903,-95.7577 -10.3192,-110.5256 -21.5902,-112.7146 -36.669,-7.1211 -340.6156,205.4349 -340.6156,238.1989 0,5.6369 25.8833,44.599 57.5161,86.5822 l 57.516,76.3332 -104.6656,131.4895 c -57.5669,72.3193 -112.1549,135.3537 -121.3072,140.0763 -9.8175,5.0658 -124.26,14.9033 -279.0967,23.9912 -424.7486,24.9297 -586.0691,41.634 -687.2329,71.1607 -33.1409,9.6729 -69.3583,17.5869 -80.4824,17.5869 -11.125,0 -64.386,-13.4428 -118.3591,-29.8726 -264.2081,-80.428 -348.2695,-91.1187 -675.0483,-85.8503 -202.7904,3.2694 -235.4801,5.5586 -330.7431,23.1611 -290.5364,53.6846 -569.9808,138.8625 -882.1419,268.8875 -92.8768,38.6861 -160.389,54.4252 -160.389,37.3912 0,-26.0457 -157.0368,-162.8127 -291.6171,-253.9768 -103.6273,-70.1963 -189.1405,-110.4594 -543.1363,-255.7291 -112.2734,-46.0738 -293.252,-122.807 -402.176,-170.5183 l -198.0437,-86.7483 -224.8015,-250.6623 c -357.1674,-398.2545 -435.1739,-483.8298 -481.4855,-528.1955 -43.076,-41.264 -44.7662,-42.0655 -181.3708,-86.0107 -270.9466,-87.163 -327.1022,-101.1929 -320.4393,-80.061 z"
       id="path29" />
    <path
       style="fill:#0b0b0b;fill-opacity:1;stroke-width:7.32156"
       d="m 4476.2086,1288.2717 c -969.2385,5.7073 -1124.4236,10.7455 -1206.5653,39.1737 -219.3621,75.9169 -415.3989,255.1377 -488.6607,446.7405 -38.8743,101.6736 -43.693,131.8083 -50.8685,318.185 -8.4402,219.2221 -8.746,1695.8601 -0.4115,1985.325 6.7072,233.0015 12.0832,269.2383 55.2916,372.6882 34.3855,82.333 84.8429,155.174 159.7645,230.64 131.8143,132.7757 247.2549,184.9 438.9059,198.1796 l 73.9249,5.1223 5.2216,63.2202 c 6.7584,81.8235 19.9091,132.7772 50.6758,196.3426 29.8995,61.773 81.8751,117.1012 131.6118,140.1047 72.2799,33.4282 200.3861,29.8614 277.2798,-7.7201 101.4124,-49.5653 166.6882,-170.1659 182.0954,-336.4317 l 5.2803,-56.9863 h 934.7677 c 514.1215,0 1078.0148,2.1934 1253.0963,4.8744 l 318.3303,4.8743 0.2296,22.6997 c 0.5318,52.6691 28.4444,183.3112 47.6058,222.8116 28.7877,59.3469 99.5175,128.29 153.4218,149.5472 35.8141,14.1236 56.9378,16.986 126.813,17.1837 112.0943,0.317 151.8923,-14.791 218.8448,-83.0778 72.3225,-73.7636 96.393,-134.285 105.756,-265.9056 l 5.0063,-70.3772 95.829,-8.3166 c 54.7927,-4.7551 117.6825,-15.1283 146.862,-24.2235 219.6735,-68.4725 400.0305,-257.784 466.8569,-490.0371 31.2,-108.4368 35.3258,-253.4582 35.5073,-1248.4629 0.177,-965.0264 -4.68,-1151.998 -32.565,-1253.4889 -52.9395,-192.681 -218.733,-393.1517 -402.1845,-486.3045 -99.915,-50.7352 -156.4838,-65.94 -259.914,-69.8607 -50.6152,-1.9186 -108.4312,-4.9235 -128.4795,-6.6776 -20.049,-1.7539 -371.0835,-4.9433 -780.0758,-7.0874 -408.9932,-2.1443 -822.3601,-4.7616 -918.5936,-5.8166 -96.2348,-1.055 -555.5314,0.3232 -1020.6598,3.0618 z m 2957.7649,316.6327 c 118.3808,62.4398 199.7212,147.5744 263.6205,275.9192 l 33.7897,67.8688 v 882.5137 882.5135 H 5364.4406 2997.4967 l 4.9431,-593.7593 c 5.5256,-663.9548 15.3246,-1079.2324 27.333,-1158.4898 13.303,-87.779 56.866,-174.4283 122.1292,-242.9136 42.2324,-44.3173 79.6172,-70.7265 164.3247,-116.0841 l 66.4178,-35.5632 1989.3785,-0.1398 1989.379,-0.1413 z m 297.156,2485.6593 c -0.3353,128.5275 -13.4085,199.5449 -50.709,275.4675 -64.971,132.2419 -208.8427,237.6206 -323.9933,237.3075 -73.5974,-0.1992 -77.0272,-4.666 -91.3394,-118.9227 -9.7328,-77.6878 -22.026,-120.5825 -46.7565,-163.1448 -21.1681,-36.4302 -79.7288,-92.2863 -124.4993,-118.7495 -72.7913,-43.0243 -189.8557,-51.6219 -262.2353,-19.2586 -125.5177,56.1232 -214.3146,210.396 -215.3939,374.2196 l -0.2538,38.6035 H 5359.1893 4102.4313 l -4.2359,-38.6035 c -2.3297,-21.232 -6.1927,-65.0746 -8.5848,-97.428 -11.4608,-155.0096 -47.0051,-227.2592 -133.5725,-271.5028 -124.7956,-63.7826 -279.4444,-51.2232 -376.389,30.5679 -60.0223,50.6405 -98.0432,141.6672 -117.468,281.2258 -6.1364,44.089 -15.2623,81.8595 -21.2335,87.8831 -14.371,14.4937 -86.9659,18.6681 -147.0929,8.4582 -134.3269,-22.8096 -240.1873,-127.9619 -276.273,-274.4265 -7.1913,-29.1919 -12.8699,-97.8146 -15.5236,-187.5785 l -4.1816,-141.5462 H 5364.63 7731.3837 Z m -3904.929,358.8556 c 33.2584,26.3849 37.4803,58.5901 37.5484,286.375 0.037,115.259 -2.3962,218.4065 -5.4027,229.2163 -3.0062,10.8099 -13.9596,29.8359 -24.3419,42.28 -36.832,44.1484 -105.9752,21.5338 -128.2726,-41.9539 -7.0957,-20.2034 -9.5991,-82.9567 -9.5991,-240.572 0,-226.8782 3.8188,-257.3748 34.9863,-279.3934 22.9031,-16.1798 72.2334,-14.0796 95.0816,4.048 z m 3160.4332,3.4543 c 30.5423,25.9208 38.5193,69.0203 42.9871,232.2449 4.1212,150.5839 -5.5898,266.6974 -25.734,307.7017 -23.6416,48.1217 -87.1133,51.6187 -120.1816,6.6214 -19.7107,-26.8211 -29.9392,-175.1322 -24.0059,-348.0726 5.0789,-148.0156 11.4712,-171.5616 54.4125,-200.4087 31.74,-21.3228 45.5722,-20.9579 72.5219,1.9133 z"
       id="path30" />
    <path
       style="fill:#0b0b0b;fill-opacity:1;stroke-width:7.32156"
       d="m 8412.5217,4447.6443 c -30.8325,22.5897 -93.7799,79.6784 -213.399,193.5369 -51.1552,48.6912 -73.5914,74.8487 -69.7777,81.3517 3.0922,5.2716 25.9575,32.747 50.8125,61.0561 61.9425,70.5506 83.4585,104.5461 83.2545,131.5431 -0.2468,32.582 -23.5192,85.2966 -104.241,236.1098 -38.9625,72.7953 -143.2335,277.1921 -231.7125,454.2155 -150.1275,300.367 -162.5303,322.5598 -185.7157,332.3307 -41.1721,17.3507 -189.909,58.5944 -451.4295,125.1791 -373.3171,95.049 -401.2635,104.1678 -412.7686,134.6879 -20.9219,55.5014 -12.8707,485.3502 12.0083,641.1131 37.3507,233.8475 117.675,391.5513 287.8125,565.0638 147.54,150.4672 295.737,233.977 513.99,289.6353 86.925,22.1675 88.3838,22.2858 115.3875,9.3619 43.248,-20.699 46.6275,-34.0207 50.3768,-198.6094 3.7785,-165.8929 9.7822,-194.7136 55.2555,-265.2548 15.4484,-23.9656 57.0817,-78.2978 92.5177,-120.7385 35.4367,-42.4407 73.47,-91.5419 84.519,-109.1139 11.0498,-17.5722 43.4055,-104.3253 71.9025,-192.7848 41.121,-127.6466 56.1937,-165.253 73.0395,-182.2436 27.3142,-27.5495 55.0905,-33.0374 87.3517,-17.2588 45.9758,22.4862 52.4716,44.3219 60.1973,202.3523 9.2962,190.165 2.6183,1073.0533 -8.3895,1109.1278 -6.2737,20.5614 -19.9635,35.6583 -57.264,63.1511 -327.8543,241.6477 -785.526,318.0113 -1261.7745,210.5292 -346.7401,-78.2539 -691.5677,-259.1504 -1072.3303,-562.5445 -123.9843,-98.7918 -307.2045,-230.47 -390.5011,-280.6496 -133.5325,-80.442 -357.2142,-158.5363 -521.9478,-182.228 -82.4486,-11.8575 -367.4853,-11.7801 -521.8011,0.1413 -180.3912,13.9365 -363.0549,7.1778 -458.0791,-16.9492 -300.1559,-76.2102 -518.5752,-275.1899 -634.5563,-578.0829 -36.0164,-94.0594 -60.5188,-200.5925 -83.7751,-364.2384 -30.6904,-215.9557 -32.0003,-220.7204 -71.721,-260.679 -41.7391,-41.9884 -124.2879,-100.0941 -337.9668,-237.8922 -91.1265,-58.7653 -192.1175,-127.4713 -224.4267,-152.6803 -32.3096,-25.2085 -113.5592,-105.721 -180.5577,-178.9162 -142.5904,-155.7834 -522.7075,-541.1236 -618.4322,-626.9301 -65.7377,-58.9285 -67.0179,-59.6465 -134.0171,-75.2054 -76.7371,-17.8201 -374.0922,-78.204 -421.1983,-85.5324 l -31.0627,-4.8327 19.029,53.9693 c 33.3536,94.602 128.1107,333.016 136.435,343.2796 10.3088,12.7085 37.7666,8.2795 146.6026,-23.6457 l 84.7359,-24.8558 245.9267,254.5336 c 135.2589,139.9938 291.3907,302.5432 346.9595,361.221 202.7658,214.1103 176.9116,193.6205 542.529,429.9508 117.3855,75.876 216.2295,143.3749 219.6568,149.9973 3.425,6.6224 8.5144,45.1296 11.3085,85.5712 15.4061,223.0496 59.4742,403.8632 135.4078,555.5786 12.109,24.1928 46.9385,81.1462 77.4011,126.5631 30.4603,45.4168 56.7596,86.1368 58.4387,90.4886 3.4268,8.8809 -70.141,2.0588 -132.4073,-12.2783 -89.3763,-20.5797 -213.0265,-93.3342 -297.8965,-175.2796 -74.0933,-71.5392 -102.4446,-116.1618 -227.3779,-357.874 -129.4988,-250.547 -201.3052,-364.6534 -280.0352,-445.0084 -114.3433,-116.7012 -292.4987,-209.194 -473.5832,-245.8693 -77.1232,-15.6201 -270.8981,-11.2902 -339.5812,7.5882 -200.429,55.0896 -338.7315,165.4809 -338.936,270.5347 -0.063,29.5497 3.7605,39.2485 24.3852,61.9493 l 24.4558,26.9147 88.7042,5.5903 c 144.019,9.0766 222.7972,40.6248 304.7073,122.0267 89.1371,88.5848 154.3266,208.4221 239.1747,439.6709 81.8478,223.0681 145.9628,341.2542 250.6081,461.9519 137.9073,159.06 326.8587,266.9811 545.3782,311.4971 90.7275,18.4821 302.0983,18.199 388.8676,-0.5215 145.5415,-31.4003 276.4437,-86.3714 405.2626,-170.1884 l 61.0866,-39.7456 123.2469,61.1338 c 253.3373,125.662 356.8155,143.0459 788.2945,132.4308 444.7447,-10.9417 500.2065,-9.5618 594.1689,14.7827 108.7944,28.1872 208.1843,63.0265 270.7959,94.9225 133.936,68.2305 393.3665,266.8506 379.0564,290.2049 -2.3287,3.8007 -23.1921,8.6924 -46.3624,10.871 -59.3538,5.5799 -195.501,51.3498 -290.0008,97.4923 -99.898,48.7783 -181.0885,113.6495 -256.8145,205.1948 -103.3142,124.8994 -166.0831,250.5774 -187.7584,375.9422 -21.146,122.2965 -14.1637,157.1073 41.0747,204.7952 47.1075,40.668 59.7931,37.91 144.6044,-31.4355 105.1169,-85.9507 283.912,-131.86 438.6188,-112.6244 122.5001,15.2313 227.1218,47.8178 516.5104,160.8779 241.2167,94.24 355.3838,131.416 481.0256,156.634 232.7253,46.714 442.9638,48.804 691.5176,6.876 300.0045,-50.609 611.3535,-188.1664 828.3577,-365.9809 70.3613,-57.6547 171.8205,-161.3593 239.9948,-245.3059 45.2639,-55.7363 62.2327,-71.5206 80.1945,-74.595 12.5309,-2.1447 121.2029,-6.1779 241.4955,-8.9629 120.2914,-2.7848 224.6062,-7.2408 231.8095,-9.9025 10.5119,-3.8843 -18.8039,-36.6312 -148.5611,-165.954 l -161.6564,-161.1146 9.2865,-59.1887 c 6.7184,-42.8152 10.2,-220.3415 12.5872,-641.7478 l 3.2993,-582.5592 -27.3105,-49.8034 c -86.2531,-157.2875 -175.713,-215.6451 -331.3643,-216.1606 -119.5845,-0.3964 -186.2302,33.7783 -269.8462,138.371 -49.0673,61.3771 -65.7923,102.2085 -94.5458,230.8289 -11.4682,51.2987 -27.3675,106.0578 -35.3318,121.6871 -7.9642,15.6292 -42.9622,59.8509 -77.772,98.2708 -108.3112,119.5404 -172.4654,232.125 -193.578,339.7117 -4.2067,21.434 -11.1232,54.8034 -15.3697,74.1549 l -7.7227,35.1842 -25.8938,-15.4086 c -54.7523,-32.5821 -160.881,-118.8394 -213.9803,-173.9146 -154.5397,-160.2904 -211.5517,-332.8149 -229.338,-693.9911 l -4.9094,-99.6994 57.4102,-15.7617 c 31.5757,-8.6689 170.595,-45.903 308.931,-82.7424 138.3353,-36.8395 296.892,-81.936 352.347,-100.2144 87.4845,-28.8353 104.541,-37.0933 128.8912,-62.3994 39.6863,-41.2449 328.4295,-621.0938 523.1288,-1050.5361 44.2237,-97.5418 54.8047,-127.6962 53.979,-153.8237 -2.0955,-66.3496 -81.5715,-488.9771 -94.3823,-501.8976 -3.5497,-3.5811 -18.8287,2.8117 -34.9515,14.6247 z"
       id="path31" />
    <path
       style="fill:#0b0b0b;fill-opacity:1;stroke-width:10.3544"
       d="m 8356.7292,4495.2804 c -95.7112,87.0284 -224.8349,214.9388 -224.8349,222.7219 0,3.7232 27.432,39.8031 60.96,80.1779 33.5279,40.3747 64.0305,83.1682 67.7842,95.0967 11.3265,35.9903 -2.0715,71.5065 -88.4168,234.3956 -45.4762,85.7902 -145.65,282.3272 -222.609,436.7493 -198.0667,397.4328 -174.6344,363.6908 -274.8262,395.7418 -46.2982,14.8109 -211.7677,59.4943 -367.71,99.2965 -324.9653,82.9428 -405.336,107.7604 -424.5157,131.0834 -17.6671,21.4829 -17.6393,453.4436 0.038,591.55 25.8098,201.6494 84.8655,361.3675 181.0155,489.5598 75.8152,101.0827 240.198,252.126 331.6162,304.7059 83.5921,48.0795 282.4725,121.0612 358.5653,131.5804 33.9615,4.6949 48.771,1.4817 68.913,-14.9516 24.8767,-20.2969 25.8352,-25.9679 31.5825,-187.0257 7.1362,-199.9554 15.6465,-222.4762 144.0675,-381.2613 101.6692,-125.7093 109.7175,-141.1647 164.073,-315.0933 49.2037,-157.4437 76.5765,-200.1075 128.3902,-200.1075 22.092,0 41.4001,8.6186 57.1216,25.4975 20.5537,22.0661 24.8774,41.3077 32.1329,142.9833 10.1888,142.7801 12.1193,812.7759 2.919,1012.7376 l -6.6539,144.6275 -37.9096,36.3958 c -20.8492,20.0176 -74.9489,58.4005 -120.2197,85.2954 -373.0253,221.6088 -868.7625,254.3329 -1359.1642,89.7194 -280.5195,-94.162 -550.1226,-250.1242 -883.633,-511.1714 -178.3113,-139.5687 -370.1234,-272.2278 -458.5224,-317.1186 -87.3101,-44.3378 -289.2878,-111.0371 -400.7377,-132.3364 -81.3997,-15.5564 -129.5015,-16.6864 -391.7881,-9.2045 -390.9295,11.1514 -508.1604,8.9413 -608.1835,-11.4648 -234.2811,-47.7967 -447.1387,-197.8241 -572.7506,-403.6887 -93.8813,-153.8632 -137.3547,-294.6398 -179.3907,-580.9199 -14.0583,-95.7333 -32.5539,-184.6853 -41.1554,-197.9263 -23.426,-36.0586 -132.2935,-115.4626 -361.5687,-263.7105 l -206.2035,-133.3314 -433.0298,-438.9697 c -392.1915,-397.5707 -437.4061,-440.1329 -479.425,-451.303 -78.8574,-20.9624 -436.8173,-93.0612 -462.078,-93.0698 -28.9521,-0.017 -30.9903,-8.1707 50.7992,203.2415 83.3344,215.4004 69.9151,202.6491 181.0881,172.0853 50.0507,-13.76 100.9358,-25.4587 113.0783,-25.9968 16.0889,-0.7133 128.4858,109.3851 414.3936,405.9149 338.5199,351.0995 405.1021,415.265 485.5678,467.9456 51.2896,33.5786 178.6709,116.9356 283.0702,185.2374 l 189.8191,124.1853 7.0898,88.9898 c 10.7766,135.2577 42.3268,308.2833 73.1113,400.9537 35.5889,107.1353 72.6581,180.9206 143.9073,286.4573 31.5954,46.7983 54.9647,87.5892 51.933,90.6466 -3.0314,3.0576 -39.2289,0 -80.4396,-6.7878 -166.3641,-27.4145 -353.3642,-154.6473 -447.0014,-304.1372 -15.6337,-24.9597 -74.5173,-134.291 -130.8501,-242.9582 -195.5199,-377.1548 -288.7757,-490.0211 -490.1333,-593.1947 -226.3059,-115.9564 -463.1499,-137.157 -674.4694,-60.3733 -205.83,74.7892 -319.7897,220.996 -237.1874,304.3072 25.6118,25.8323 37.7299,29.3014 121.4649,34.7728 253.4826,16.5635 375.5796,144.0387 530.2999,553.6601 73.2684,193.9719 117.58,285.5527 183.5564,379.3499 135.3291,192.3916 299.9918,310.0475 533.2632,381.0282 83.9995,25.5598 108.9091,28.3152 262.9099,29.0826 134.798,0.6712 186.1733,-3.2345 247.445,-18.813 138.5139,-35.2166 268.9503,-95.1218 396.0445,-181.888 l 30.0309,-20.5019 112.3968,56.8536 c 261.9972,132.5252 338.8425,144.3883 879.1836,135.7257 442.0075,-7.0863 452.9658,-6.1289 647.3167,56.5509 139.3821,44.9522 347.5634,174.6955 476.5361,296.9882 l 51.5122,48.8443 -61.8608,11.902 c -177.9243,34.2322 -347.0686,114.7369 -455.3416,216.7202 -181.6683,171.1153 -281.8396,366.7466 -281.8396,550.4224 0,65.5401 1.1876,68.5624 41.2712,105.0867 22.6979,20.6827 46.2015,37.6057 52.229,37.6057 17.1699,0 52.2922,-20.984 97.9589,-58.5276 97.0907,-79.819 255.4311,-124.2417 406.5342,-114.0546 115.5705,7.7918 234.3697,41.8837 498.4401,143.0382 119.9663,45.954 256.936,97.025 304.3791,113.492 533.0077,184.994 1163.1525,101.281 1640.3834,-217.9225 97.4258,-65.165 257.7975,-215.1916 345.1695,-322.9033 56.4503,-69.5926 58.4303,-70.9031 116.6206,-77.2026 32.5575,-3.5244 124.1497,-7.4248 203.5387,-8.6677 79.389,-1.2429 167.4711,-4.8082 195.7395,-7.9233 l 51.3965,-5.6638 -162.788,-161.5171 -162.7875,-161.5172 10.2,-67.2562 c 5.61,-36.9911 13.449,-323.2864 17.4195,-636.2119 l 7.2195,-568.9552 -43.7422,-74.2615 c -84.828,-144.0141 -172.8795,-198.8663 -320.0018,-199.3473 -104.5095,-0.3418 -166.1708,26.966 -242.0415,107.1918 -67.3095,71.173 -89.5882,117.0926 -118.5652,244.3736 -29.8051,130.9191 -34.725,140.4163 -130.6966,252.2967 -114.9674,134.0244 -160.6552,222.9947 -189.1342,368.3084 -6.4455,32.8864 -15.6277,59.7931 -20.4052,59.7931 -17.2366,0 -181.881,-129.5923 -238.3261,-187.5883 -144.0074,-147.962 -204.687,-327.5279 -223.8749,-662.4983 l -7.296,-127.3707 51.6607,-14.9595 c 28.4137,-8.2278 167.6512,-46.1266 309.417,-84.2195 335.2223,-90.0755 441.036,-124.6357 478.2225,-156.1953 41.541,-35.254 407.52,-768.602 554.9947,-1112.0956 l 35.7173,-83.1904 -17.424,-109.1873 c -18.2895,-114.6106 -63.9383,-356.2462 -73.1782,-387.3549 -8.9386,-30.0931 -30.5236,-21.1512 -98.7976,40.9295 z"
       id="path32" />
    <path
       style="fill:#0b0b0b;fill-opacity:1;stroke-width:10.3544"
       d="m 8315.6713,4533.7294 c -58.5481,53.6669 -124.7708,116.8186 -147.1613,140.3372 l -40.7107,42.7609 22.9027,28.643 c 12.597,15.7539 44.052,56.5798 69.9,90.7242 55.5908,73.4363 55.35,85.0387 -4.2083,203.0882 -292.2314,579.222 -437.3264,859.0064 -455.7157,878.7491 -23.841,25.5958 -140.2523,60.9294 -527.1352,159.9989 -273.087,69.9292 -313.599,82.3822 -341.0806,104.8446 -23.4082,19.1332 -23.5642,20.9713 -22.6897,267.1402 0.957,268.9774 13.527,397.767 51.888,531.6398 49.887,174.0962 127.446,294.1964 291.3645,451.1791 121.6793,116.5302 218.6768,175.0863 380.34,229.6079 154.755,52.1916 196.0672,57.6944 229.3433,30.5481 24.6952,-20.1465 25.8719,-26.6977 31.4594,-175.2534 7.6283,-202.8184 17.0858,-229.4183 134.4293,-378.0792 112.0815,-141.9943 118.248,-153.7132 175.0042,-332.5807 31.62,-99.6485 52.698,-148.6816 72.6421,-168.9803 31.3582,-31.9151 65.5882,-36.4089 98.7719,-12.9663 47.9543,33.877 49.479,55.2048 49.479,691.9468 0,687.7331 9.447,625.4702 -106.3282,700.7751 -423.0518,275.1679 -971.5072,307.2478 -1526.0915,89.2631 -238.7528,-93.8441 -489.3622,-246.6384 -785.3271,-478.8057 -183.9216,-144.2764 -378.0229,-275.3472 -476.7936,-321.9664 -99.0541,-46.7522 -296.7473,-109.1724 -396.8403,-125.3 -44.5596,-7.1793 -231.3024,-10.0684 -518.2031,-8.0168 l -448.5377,3.2076 -87.6365,-29.6509 c -213.2302,-72.1429 -377.2227,-198.6871 -492.8299,-380.2873 -86.7157,-136.2181 -135.6161,-289.2325 -173.0723,-541.5513 -27.6417,-186.2074 -30.7158,-201.3496 -48.1139,-236.9865 -16.6645,-34.1392 -127.2972,-115.9695 -363.4025,-268.793 l -206.2031,-133.4703 -433.0298,-438.8658 c -393.2349,-398.5348 -437.2944,-439.981 -479.4249,-451.0024 -88.9933,-23.2795 -433.8008,-93.0931 -459.7853,-93.0931 -22.3797,0 -25.1567,3.4 -19.1042,23.3971 18.1686,60.0242 129.7875,338.575 142.9078,356.632 14.5654,20.0448 16.2318,19.929 121.246,-8.4388 l 106.4785,-28.763 417.5622,424.6853 417.5646,424.6848 224.3287,143.4051 c 331.6613,212.0184 302.9926,185.4822 311.6249,288.4403 24.5389,292.654 86.149,490.8594 211.153,679.2891 26.5579,40.0354 52.0231,79.1623 56.5856,86.9489 6.7718,11.5549 -1.894,12.8592 -47.1498,7.0952 -127.1438,-16.1931 -250.7018,-75.6163 -364.4467,-175.2745 -75.5734,-66.2137 -115.2631,-127.3849 -247.5398,-381.5155 -176.3816,-338.8693 -274.5737,-465.0356 -435.8671,-560.045 -196.0902,-115.506 -400.3155,-157.0498 -599.6177,-121.9752 -265.0252,46.6409 -467.1545,234.1619 -364.2633,337.9371 25.1387,25.3563 38.5605,29.4177 115.9902,35.1004 48.1563,3.5346 110.4155,13.4589 138.3507,22.0542 158.8293,48.8696 278.6209,210.5721 401.2966,541.6988 67.0528,180.9826 94.4668,239.1804 158.5129,336.488 142.1513,215.982 321.8035,347.7992 569.9202,418.1715 76.2019,21.6131 109.8334,24.8655 257.755,24.929 145.3337,0.063 182.7841,-3.3996 257.0494,-23.7613 114.5198,-31.3981 212.4082,-74.1395 314.7057,-137.4123 45.9562,-28.4245 89.3019,-51.681 96.3244,-51.681 7.0235,0 59.2596,23.5304 116.0815,52.29 115.7229,58.5711 179.6296,84.0743 277.7916,110.8563 59.2349,16.1616 123.2809,18.3868 551.5966,19.1648 344.3431,0.6253 499.5006,4.5615 536.1319,13.6003 158.4323,39.0928 305.2203,102.1 422.7195,181.4478 83.0399,56.0771 239.7553,183.3123 245.9987,199.7233 3.4468,9.0576 -10.8753,15.3077 -45.7783,19.9774 -70.4957,9.4321 -248.673,73.0969 -329.0985,117.5907 -88.4912,48.9565 -249.3946,211.6542 -308.2096,311.6494 -62.6807,106.5629 -96.2004,209.515 -102.016,313.328 l -4.8503,86.5737 39.5115,40.8115 c 21.7312,22.4465 49.0097,40.6415 60.6178,40.4335 11.6077,-0.208 51.2634,-23.63 88.1224,-52.0495 72.5613,-55.9471 142.4704,-86.8935 247.445,-109.5357 168.1833,-36.2762 323.3933,-1.9897 749.5177,165.5712 291.8081,114.745 453.7524,156.484 673.1054,173.486 131.8883,10.223 337.1026,0.474 459.5258,-21.831 263.5987,-48.024 519.21,-149.599 726.3367,-288.6307 84.9713,-57.0356 297.549,-258.717 372.8168,-353.706 l 35.757,-45.1253 245.4045,-8.9427 c 134.9738,-4.9188 248.3464,-11.9562 251.9417,-15.6388 3.5938,-3.6827 -66.8943,-77.6205 -156.6407,-164.3067 l -163.176,-157.6106 10.5997,-67.5922 c 5.8305,-37.1756 13.8413,-323.5074 17.8028,-636.2927 l 7.203,-568.7008 -43.4198,-73.7148 c -76.1482,-129.2776 -140.7254,-178.0855 -261.3345,-197.5182 -123.6584,-19.9244 -214.9072,11.926 -302.8484,105.7106 -68.3693,72.9111 -81.5783,100.2156 -118.1408,244.22 -16.7212,65.8591 -34.6177,127.6868 -39.7688,137.3949 -5.1517,9.708 -47.037,61.8723 -93.0787,115.9209 -97.527,114.487 -157.7558,228.3515 -180.9285,342.0559 -8.676,42.5727 -17.8245,79.4722 -20.3295,81.9992 -14.637,14.7621 -229.8863,-162.9267 -288.4635,-238.1267 -119.505,-153.4179 -161.8125,-312.3542 -183.189,-688.1846 l -2.8095,-49.3903 51.6247,-14.7477 c 28.3935,-8.1111 167.6145,-46.0009 309.381,-84.1996 338.115,-91.1043 441.1178,-124.9165 479.3303,-157.3463 33.8842,-28.7565 355.1153,-665.8169 509.6632,-1010.7562 l 80.8125,-180.3686 -17.8597,-110.7977 c -18.9248,-117.4001 -64.5337,-358.3917 -73.6147,-388.9651 -2.9731,-10.0089 -11.7053,-18.1979 -19.4056,-18.1979 -7.7002,0 -61.9035,43.9095 -120.4499,97.5764 z"
       id="path33" />
  </g>
</svg>
